<?xml version="1.0" encoding="UTF-8"?>
<!DOCTYPE svg PUBLIC "-//W3C//DTD SVG 1.1//EN" "http://www.w3.org/Graphics/SVG/1.1/DTD/svg11.dtd">
<!-- Creator: CorelDRAW 2021 (64-Bit) -->
<svg xmlns="http://www.w3.org/2000/svg" xml:space="preserve" width="1260px" height="1260px" version="1.1" style="shape-rendering:geometricPrecision; text-rendering:geometricPrecision; image-rendering:optimizeQuality; fill-rule:evenodd; clip-rule:evenodd"
viewBox="0 0 300.17 300.17"
 xmlns:xlink="http://www.w3.org/1999/xlink"
 xmlns:xodm="http://www.corel.com/coreldraw/odm/2003">
 <defs>
  <style type="text/css">
   <![CDATA[
    .str0 {stroke:black;stroke-width:4.76;stroke-linecap:round;stroke-linejoin:round;stroke-miterlimit:22.9256}
    .str1 {stroke:black;stroke-width:0.48;stroke-linecap:round;stroke-linejoin:round;stroke-miterlimit:22.9256}
    .str2 {stroke:#FFFFCC;stroke-width:3.81;stroke-linecap:round;stroke-linejoin:round;stroke-miterlimit:22.9256}
    .fil4 {fill:none}
    .fil2 {fill:none;fill-rule:nonzero}
    .fil0 {fill:#663300}
    .fil1 {fill:#FF9933;fill-rule:nonzero}
    .fil3 {fill:#FFFFCC;fill-rule:nonzero}
   ]]>
  </style>
 </defs>
 <g id="Layer_x0020_1">
  <metadata id="CorelCorpID_0Corel-Layer"/>
  <g id="_1933978437840">
   <circle class="fil0 str0" cx="150.08" cy="150.08" r="147.7"/>
   <path class="fil1" d="M33.94 138.71l1.42 3.06c-0.95,0.81 -1.57,1.66 -1.85,2.57 -0.28,0.9 -0.21,1.8 0.22,2.72 0.42,0.9 1.02,1.56 1.8,2 0.8,0.44 1.87,0.71 3.24,0.81 0.93,0.06 2.98,0.06 6.15,-0.01 1.91,-0.05 3.45,0 4.58,0.15 1.14,0.14 2.3,0.46 3.47,0.93 3.12,1.23 5.39,3.36 6.8,6.4 1.07,2.29 1.48,4.64 1.23,7.07 -0.24,2.43 -1.11,4.66 -2.59,6.66 -0.79,1.07 -1.76,2.06 -2.87,2.97 -1.11,0.93 -2.22,1.64 -3.32,2.15l-1.42 -3.03c1.37,-1.09 2.23,-2.13 2.59,-3.11 0.37,-0.98 0.29,-2.04 -0.24,-3.18 -0.55,-1.18 -1.57,-1.99 -3.06,-2.4 -0.98,-0.25 -2.67,-0.35 -5.06,-0.29 -2.63,0.06 -4.45,0.07 -5.44,0.04 -1,-0.03 -2,-0.15 -3,-0.35 -4.45,-0.83 -7.59,-3.22 -9.44,-7.18 -0.95,-2.02 -1.4,-4.09 -1.36,-6.19 0.03,-2.1 0.55,-4.03 1.56,-5.77 1.39,-2.42 3.59,-4.43 6.59,-6.02zm3.53 2.07l-1.36 -2.93c1.09,-0.42 2.07,-0.72 2.95,-0.88 0.87,-0.17 2.16,-0.29 3.87,-0.37 0.42,-0.03 0.74,-0.09 0.97,-0.2 0.34,-0.16 0.54,-0.38 0.59,-0.68l0.24 -1.01c0.11,-0.51 0.38,-0.85 0.79,-1.04 0.47,-0.22 0.9,-0.22 1.28,0.02 0.38,0.24 0.74,0.72 1.08,1.46l4.11 8.78c0.23,0.52 0.28,1 0.14,1.46 -0.14,0.45 -0.44,0.79 -0.9,1.01 -0.37,0.16 -0.75,0.2 -1.15,0.11 -0.23,-0.07 -0.44,-0.18 -0.63,-0.34 -0.19,-0.16 -0.44,-0.45 -0.75,-0.89 -0.6,-0.77 -1.36,-1.52 -2.27,-2.21 -0.9,-0.7 -1.85,-1.26 -2.82,-1.68 -1.95,-0.85 -3.99,-1.05 -6.14,-0.61zm11.29 33.33l1.41 3.03c-1.45,0.69 -3.25,1.02 -5.4,1 -0.8,0 -1.34,0.02 -1.63,0.04 -0.29,0.03 -0.55,0.1 -0.78,0.2 -0.36,0.17 -0.6,0.35 -0.73,0.55 -0.12,0.2 -0.27,0.61 -0.44,1.26 -0.14,0.53 -0.39,0.9 -0.77,1.07 -0.99,0.47 -1.85,-0.06 -2.55,-1.59l-4.52 -9.69c-0.23,-0.5 -0.28,-0.98 -0.16,-1.47 0.12,-0.47 0.39,-0.82 0.81,-1.04 0.38,-0.2 0.74,-0.23 1.07,-0.09 0.33,0.13 0.73,0.47 1.17,0.99 1.11,1.35 2.37,2.5 3.76,3.47 1.39,0.97 2.82,1.68 4.28,2.12 1.5,0.47 2.99,0.52 4.48,0.15z"/>
   <path id="_1" class="fil1" d="M72.41 121.64l14.59 31.29c0.33,0.71 0.69,1.14 1.1,1.32 0.22,0.11 0.41,0.16 0.55,0.14 0.15,-0.01 0.61,-0.09 1.38,-0.24 0.96,-0.2 1.61,0.09 1.97,0.87 0.22,0.46 0.16,0.94 -0.17,1.44 -0.24,0.37 -0.76,0.75 -1.56,1.12l-0.88 0.41 -11.86 5.53 -0.87 0.4c-0.77,0.36 -1.41,0.51 -1.92,0.46 -0.51,-0.06 -0.88,-0.32 -1.1,-0.8 -0.36,-0.78 -0.17,-1.47 0.59,-2.06 0.6,-0.5 0.96,-0.79 1.06,-0.9 0.1,-0.1 0.18,-0.27 0.22,-0.5 0.12,-0.42 0.02,-0.99 -0.3,-1.68l-14.6 -31.3 11.8 -5.5zm9.27 -4.32l5.08 10.89c0.24,0.52 0.29,1.02 0.15,1.47 -0.15,0.46 -0.45,0.8 -0.9,1.01 -0.45,0.2 -0.88,0.23 -1.31,0.07 -0.43,-0.15 -0.81,-0.47 -1.14,-0.94l-1.02 -1.51c-1.04,-1.53 -2.22,-2.73 -3.54,-3.58 -0.83,-0.52 -1.77,-0.83 -2.8,-0.93l-1.51 -3.22 6.99 -3.26zm-30.22 14.09l6.98 -3.26 1.51 3.22c-0.62,0.88 -0.98,1.79 -1.09,2.75 -0.19,1.57 -0.04,3.23 0.46,5.02l0.51 1.74c0.15,0.57 0.15,1.06 -0.01,1.49 -0.15,0.43 -0.46,0.74 -0.9,0.95 -0.46,0.21 -0.91,0.23 -1.35,0.04 -0.44,-0.18 -0.78,-0.53 -1.03,-1.05l-5.08 -10.9z"/>
   <path id="_2" class="fil1" d="M99.45 109.03l14.59 31.29c0.33,0.71 0.69,1.14 1.1,1.32 0.22,0.11 0.41,0.16 0.55,0.14 0.15,-0.01 0.61,-0.09 1.38,-0.24 0.96,-0.2 1.61,0.09 1.97,0.87 0.22,0.46 0.16,0.94 -0.17,1.44 -0.24,0.37 -0.75,0.74 -1.53,1.11l-0.91 0.42 -11.86 5.53 -0.69 0.32c-0.63,0.29 -1.18,0.4 -1.63,0.32 -0.47,-0.07 -0.8,-0.34 -1,-0.78 -0.34,-0.72 -0.21,-1.38 0.39,-1.94 0.5,-0.46 0.78,-0.74 0.86,-0.83 0.07,-0.09 0.13,-0.24 0.16,-0.45 0.08,-0.38 -0.02,-0.88 -0.31,-1.51l-12.44 -26.66c-0.3,-0.63 -0.61,-1.03 -0.96,-1.21 -0.18,-0.11 -0.32,-0.17 -0.44,-0.17 -0.12,0.01 -0.52,0.04 -1.19,0.12 -0.82,0.1 -1.4,-0.21 -1.74,-0.94 -0.2,-0.44 -0.19,-0.86 0.04,-1.26 0.24,-0.41 0.67,-0.76 1.31,-1.05l0.69 -0.32 11.83 -5.52zm16.83 14.72c1.75,-0.51 3.14,-0.82 4.16,-0.93 1.02,-0.11 2.01,-0.07 2.96,0.11 1.01,0.2 1.88,0.59 2.64,1.16 0.76,0.58 1.34,1.3 1.73,2.15l2.58 5.52c0.26,0.57 0.58,0.77 0.95,0.6 0.14,-0.06 0.24,-0.16 0.3,-0.29 0.06,-0.12 0.13,-0.34 0.2,-0.66 0.15,-0.82 0.46,-1.33 0.93,-1.55 0.3,-0.14 0.67,-0.12 1.12,0.06 0.45,0.18 0.75,0.43 0.9,0.75 0.25,0.56 0.3,1.35 0.15,2.38 -0.16,1.03 -0.48,2.05 -0.97,3.03 -0.45,0.93 -1.04,1.73 -1.78,2.38 -0.73,0.65 -1.67,1.25 -2.84,1.78 -2.33,1.1 -4.48,1.29 -6.42,0.56 -1.94,-0.74 -3.47,-2.29 -4.59,-4.7l-2.09 -4.47c-0.46,-1 -0.74,-1.57 -0.83,-1.72 -0.42,-0.67 -0.95,-1.16 -1.6,-1.49 -0.79,-0.39 -1.69,-0.42 -2.69,-0.07l-1.33 -2.85c0.88,-0.6 1.44,-1.16 1.69,-1.7 0.2,-0.48 0.27,-0.96 0.21,-1.43 -0.06,-0.47 -0.27,-1.11 -0.66,-1.9l-3.28 -7.06c-0.52,-1.12 -1.13,-1.85 -1.82,-2.2 -0.69,-0.35 -1.68,-0.41 -2.96,-0.2l-1.39 -2.96 0.7 -0.32c1.97,-0.92 3.69,-1.64 5.14,-2.14 2.15,-0.77 4.31,-0.95 6.46,-0.55 3.1,0.56 5.36,2.38 6.79,5.43 1.16,2.51 1.34,4.91 0.52,7.24 -0.34,0.98 -0.86,1.9 -1.54,2.73 -0.68,0.84 -1.79,1.94 -3.34,3.31z"/>
   <path id="_3" class="fil1" d="M138.11 93.62c-0.75,0.75 -1.18,1.48 -1.3,2.2 -0.11,0.72 0.08,1.62 0.58,2.69l11.1 23.81c0.73,1.56 1.45,2.57 2.17,3.01 0.6,0.37 1.38,0.47 2.37,0.29l1.37 2.93c-4.1,1.51 -8.09,1.57 -11.98,0.17 -5.08,-1.83 -9.05,-5.82 -11.92,-11.98 -1.45,-3.09 -2.29,-6.1 -2.54,-9.02 -0.24,-2.92 0.12,-5.67 1.1,-8.25 0.76,-1.97 1.75,-3.67 3.01,-5.09 1.26,-1.44 2.83,-2.64 4.71,-3.63l1.33 2.87zm2.17 -1l-1.33 -2.88c1.96,-0.81 3.9,-1.23 5.81,-1.28 1.92,-0.05 3.88,0.27 5.86,0.96 5.29,1.84 9.39,5.9 12.32,12.19 2.87,6.16 3.38,11.77 1.52,16.83 -1.44,3.92 -4.06,6.95 -7.9,9.09l-1.36 -2.93c0.42,-0.32 0.71,-0.63 0.9,-0.92 0.18,-0.28 0.3,-0.64 0.37,-1.06 0.14,-0.96 -0.13,-2.17 -0.82,-3.64l-11.1 -23.81c-0.44,-0.94 -0.95,-1.62 -1.53,-2.02 -0.38,-0.27 -0.78,-0.44 -1.18,-0.52 -0.39,-0.07 -0.91,-0.08 -1.56,-0.01z"/>
   <path id="_4" class="fil1" d="M172.78 74.84l25.64 18.01 5.48 11.74 -7.27 3.39 -32.59 -22.74c-0.71,-0.5 -1.24,-0.82 -1.61,-0.97 -0.38,-0.15 -0.79,-0.19 -1.24,-0.14l-1.18 0.1c-0.31,0.04 -0.59,-0.02 -0.86,-0.18 -0.28,-0.15 -0.48,-0.37 -0.61,-0.66 -0.14,-0.31 -0.19,-0.62 -0.15,-0.95 0.04,-0.33 0.16,-0.61 0.38,-0.84 0.24,-0.27 1.03,-0.7 2.34,-1.32l11.67 -5.44zm-6.82 14.56l5.01 3.37 6.67 14.27c0.58,1.25 1.26,2.17 2.05,2.77 0.79,0.61 1.76,0.95 2.9,1.06l1 0.08c0.6,0.05 1.01,0.34 1.26,0.87 0.19,0.41 0.18,0.82 -0.03,1.25 -0.18,0.36 -0.71,0.74 -1.6,1.16l-6.16 2.88c-1.61,0.75 -2.62,0.66 -3.06,-0.27 -0.15,-0.32 -0.19,-0.61 -0.1,-0.87 0.08,-0.27 0.33,-0.69 0.75,-1.27 1.26,-1.74 1.32,-3.85 0.16,-6.34l-8.85 -18.96zm30.48 -0.82l-5.06 -3.45 -3.44 -7.38c-0.69,-1.49 -1.45,-2.53 -2.24,-3.12 -0.8,-0.59 -1.88,-0.92 -3.24,-0.97 -0.45,-0.01 -0.79,-0.08 -1.03,-0.22 -0.24,-0.14 -0.43,-0.36 -0.58,-0.68 -0.22,-0.48 -0.23,-0.9 -0.03,-1.26 0.21,-0.37 0.65,-0.72 1.33,-1.03l6.66 -3.11c0.91,-0.42 1.57,-0.55 1.98,-0.4 0.43,0.14 0.74,0.41 0.92,0.79 0.17,0.39 0.22,0.7 0.14,0.97 -0.08,0.26 -0.37,0.7 -0.86,1.32 -0.71,0.91 -1.07,1.98 -1.09,3.2 0.01,0.88 0.3,1.95 0.87,3.19l5.67 12.15z"/>
   <path id="_5" class="fil1" d="M207.89 57.59l1.38 2.96c-1.4,1.1 -1.6,2.71 -0.62,4.81l11.57 24.8c0.45,0.97 0.92,1.64 1.44,2.03 0.43,0.32 1.08,0.46 1.97,0.41l1.4 3.01c-0.57,0.26 -1.11,0.46 -1.62,0.59 -0.51,0.13 -1.22,0.25 -2.13,0.35 -2.16,0.24 -4.31,0.05 -6.44,-0.57 -2.11,-0.61 -4.09,-1.6 -5.93,-2.97 -2.84,-2.15 -5.17,-5.18 -7,-9.1 -1.75,-3.78 -2.65,-7.44 -2.66,-11 -0.02,-3.56 0.85,-6.76 2.59,-9.61 1,-1.66 2.25,-3.09 3.71,-4.3 0.61,-0.5 1.4,-0.97 2.34,-1.41zm3.52 1.89l-1.34 -2.88c3.01,-1.08 5.63,-1.65 7.86,-1.73 0.67,-0.01 1.15,-0.08 1.45,-0.22 0.28,-0.13 0.47,-0.3 0.56,-0.5 0.09,-0.2 0.22,-0.73 0.39,-1.56 0.11,-0.59 0.41,-0.99 0.88,-1.22 0.51,-0.23 0.92,-0.25 1.25,-0.07 0.33,0.18 0.65,0.59 0.95,1.23l4.83 10.36c0.62,1.33 0.44,2.22 -0.55,2.68 -0.51,0.24 -0.94,0.27 -1.3,0.12 -0.36,-0.15 -0.83,-0.57 -1.4,-1.25 -0.74,-0.86 -1.75,-1.8 -3.06,-2.8 -1.31,-0.99 -2.45,-1.72 -3.44,-2.19 -1.15,-0.55 -2.26,-0.82 -3.37,-0.81 -1.09,0 -2.33,0.28 -3.71,0.84zm25.9 24.12c-0.37,1.04 -0.99,2.2 -1.82,3.49 -0.84,1.29 -1.68,2.39 -2.54,3.31 -0.78,0.81 -1.7,1.61 -2.76,2.38 -1.05,0.78 -2.02,1.37 -2.91,1.78l-1.4 -3.01c0.45,-0.36 0.77,-0.69 0.94,-0.99 0.18,-0.3 0.28,-0.65 0.31,-1.05 0.04,-0.69 -0.13,-1.46 -0.53,-2.32l-3.62 -7.76c-0.32,-0.69 -0.69,-1.13 -1.09,-1.31 -0.2,-0.13 -0.39,-0.18 -0.53,-0.17 -0.15,0.02 -0.6,0.1 -1.36,0.27 -0.94,0.19 -1.59,-0.12 -1.96,-0.9 -0.22,-0.46 -0.19,-0.91 0.09,-1.34 0.28,-0.43 0.82,-0.83 1.59,-1.2l0.87 -0.4 9.75 -4.54c0.81,-0.38 1.43,-0.53 1.86,-0.46 0.43,0.06 0.78,0.37 1.03,0.92 0.16,0.34 0.22,0.65 0.19,0.93 -0.03,0.28 -0.17,0.63 -0.41,1.06 -0.24,0.41 -0.35,0.74 -0.35,1 0.01,0.25 0.15,0.66 0.42,1.23l4.23 9.08z"/>
   <path id="_6" class="fil1" d="M59.25 206.49l14.59 31.29c0.33,0.7 0.69,1.13 1.1,1.31 0.22,0.11 0.41,0.16 0.55,0.14 0.15,-0.01 0.61,-0.09 1.38,-0.24 0.96,-0.2 1.61,0.09 1.97,0.87 0.22,0.47 0.16,0.95 -0.17,1.44 -0.24,0.37 -0.75,0.74 -1.53,1.11l-0.91 0.42 -11.86 5.53 -0.69 0.32c-0.63,0.29 -1.18,0.4 -1.63,0.32 -0.47,-0.07 -0.8,-0.34 -1,-0.78 -0.34,-0.72 -0.21,-1.37 0.39,-1.93 0.5,-0.47 0.78,-0.75 0.86,-0.84 0.07,-0.09 0.13,-0.24 0.16,-0.45 0.08,-0.38 -0.02,-0.88 -0.31,-1.5l-12.44 -26.67c-0.29,-0.62 -0.61,-1.02 -0.96,-1.2 -0.18,-0.12 -0.32,-0.18 -0.44,-0.18 -0.12,0.01 -0.52,0.04 -1.19,0.12 -0.81,0.11 -1.4,-0.21 -1.74,-0.94 -0.2,-0.44 -0.19,-0.86 0.04,-1.26 0.24,-0.4 0.67,-0.75 1.31,-1.05l0.69 -0.32 11.83 -5.51zm16.83 14.71c1.75,-0.51 3.14,-0.82 4.16,-0.93 1.02,-0.11 2.01,-0.07 2.97,0.11 1,0.2 1.87,0.59 2.63,1.16 0.76,0.59 1.34,1.3 1.73,2.15l2.58 5.52c0.26,0.57 0.58,0.77 0.95,0.6 0.14,-0.06 0.24,-0.16 0.3,-0.29 0.06,-0.12 0.13,-0.34 0.2,-0.66 0.15,-0.81 0.46,-1.33 0.93,-1.55 0.3,-0.14 0.67,-0.12 1.12,0.06 0.45,0.18 0.75,0.43 0.9,0.76 0.25,0.55 0.3,1.34 0.15,2.37 -0.16,1.04 -0.48,2.05 -0.97,3.03 -0.45,0.94 -1.04,1.73 -1.78,2.38 -0.73,0.65 -1.67,1.26 -2.83,1.79 -2.34,1.09 -4.49,1.28 -6.43,0.55 -1.94,-0.73 -3.47,-2.29 -4.59,-4.7l-2.09 -4.47c-0.46,-0.99 -0.74,-1.57 -0.83,-1.72 -0.42,-0.67 -0.95,-1.16 -1.6,-1.49 -0.79,-0.38 -1.69,-0.41 -2.68,-0.07l-1.34 -2.85c0.88,-0.59 1.45,-1.15 1.69,-1.7 0.2,-0.48 0.27,-0.96 0.21,-1.43 -0.06,-0.46 -0.27,-1.1 -0.66,-1.9l-3.28 -7.06c-0.52,-1.11 -1.13,-1.85 -1.82,-2.2 -0.69,-0.35 -1.68,-0.41 -2.96,-0.2l-1.39 -2.96 0.7 -0.32c1.97,-0.92 3.69,-1.63 5.14,-2.14 2.15,-0.77 4.31,-0.95 6.46,-0.55 3.1,0.56 5.36,2.38 6.79,5.43 1.16,2.51 1.34,4.92 0.52,7.24 -0.34,0.99 -0.85,1.9 -1.54,2.73 -0.68,0.85 -1.79,1.94 -3.34,3.31z"/>
   <path id="_7" class="fil1" d="M97.39 188.7l16.96 36.36 -11.83 5.51 -0.69 0.33c-0.64,0.29 -1.19,0.4 -1.64,0.32 -0.46,-0.07 -0.79,-0.34 -0.99,-0.79 -0.34,-0.72 -0.21,-1.37 0.39,-1.93 0.49,-0.46 0.77,-0.74 0.85,-0.83 0.07,-0.09 0.13,-0.25 0.16,-0.46 0.08,-0.38 -0.02,-0.88 -0.31,-1.5l-12.44 -26.67c-0.29,-0.62 -0.6,-1.02 -0.95,-1.2 -0.18,-0.11 -0.32,-0.17 -0.44,-0.17 -0.12,0.01 -0.53,0.04 -1.2,0.12 -0.81,0.1 -1.39,-0.21 -1.73,-0.95 -0.2,-0.44 -0.19,-0.86 0.04,-1.26 0.24,-0.4 0.67,-0.75 1.3,-1.04l0.69 -0.32 11.83 -5.52zm2.41 -1.13l10.71 -4.99 4.4 9.42c0.26,0.56 0.34,1.01 0.25,1.36 -0.1,0.35 -0.37,0.64 -0.83,0.86 -0.39,0.18 -0.72,0.23 -0.97,0.15 -0.26,-0.07 -0.58,-0.32 -0.97,-0.75 -1.63,-1.75 -3.35,-2.87 -5.17,-3.35 -1.8,-0.47 -3.79,-0.34 -5.97,0.42l-1.45 -3.12zm8.92 19.45l-1.44 -3.09c0.8,-0.98 1.3,-1.88 1.52,-2.69 0.22,-0.82 0.22,-1.78 0,-2.86 -0.18,-0.74 -0.21,-1.29 -0.1,-1.66 0.11,-0.37 0.38,-0.65 0.8,-0.84 0.56,-0.27 1.05,-0.23 1.48,0.12 0.23,0.17 0.54,0.67 0.92,1.5l4.73 10.14c0.4,0.84 0.58,1.47 0.54,1.88 -0.03,0.41 -0.3,0.73 -0.8,0.96 -0.41,0.19 -0.78,0.21 -1.13,0.07 -0.34,-0.14 -0.72,-0.47 -1.14,-0.99 -0.88,-1.1 -1.74,-1.84 -2.6,-2.24 -0.88,-0.4 -1.8,-0.5 -2.78,-0.3zm8.09 16.88l-1.34 -2.87c1.07,-0.72 1.92,-1.41 2.52,-2.08 0.6,-0.68 1.13,-1.52 1.59,-2.53 0.46,-1.01 0.75,-1.98 0.88,-2.89 0.12,-0.91 0.12,-2.04 -0.01,-3.38 -0.07,-0.66 -0.04,-1.15 0.07,-1.45 0.12,-0.31 0.36,-0.54 0.74,-0.72 0.49,-0.23 0.9,-0.24 1.23,-0.04 0.34,0.2 0.68,0.66 1.02,1.4l4.38 9.4 -11.08 5.16z"/>
   <path id="_8" class="fil1" d="M129.26 172.97l1.49 3.22c-0.97,0.65 -1.54,1.47 -1.7,2.48 -0.16,1.01 0.09,2.21 0.75,3.64l10.26 22 0.53 1.14c0.19,0.41 0.48,0.81 0.86,1.18 0.38,0.38 0.78,0.66 1.2,0.85 0.44,0.22 0.86,0.34 1.25,0.34 0.4,0 0.89,-0.1 1.46,-0.31l1.51 3.25c-3.45,1.62 -6.86,2.12 -10.24,1.5 -2.98,-0.53 -5.66,-1.86 -8.05,-4.01 -2.37,-2.14 -4.42,-5.03 -6.13,-8.69 -1.24,-2.68 -2.04,-5.34 -2.38,-8 -0.34,-2.67 -0.2,-5.18 0.4,-7.54 0.62,-2.39 1.68,-4.56 3.18,-6.53 1.49,-1.98 3.16,-3.39 4.98,-4.24l0.63 -0.28zm3.62 2.26l-1.51 -3.22c0.94,-0.27 1.72,-0.44 2.33,-0.53 0.62,-0.09 1.76,-0.21 3.42,-0.36 1.06,-0.1 1.73,-0.22 2.04,-0.36 0.51,-0.24 0.79,-0.65 0.84,-1.24l0.04 -0.81c0.02,-0.53 0.32,-0.93 0.91,-1.2 0.48,-0.22 0.91,-0.25 1.3,-0.09 0.39,0.17 0.71,0.52 0.97,1.07l5.16 11.08c0.34,0.72 0.42,1.32 0.25,1.79 -0.16,0.48 -0.45,0.81 -0.86,1 -0.42,0.2 -0.84,0.22 -1.22,0.06 -0.39,-0.15 -0.8,-0.5 -1.25,-1.06 -1.03,-1.23 -1.91,-2.16 -2.64,-2.8 -1.54,-1.33 -3.06,-2.29 -4.52,-2.88 -0.99,-0.42 -1.9,-0.66 -2.74,-0.74 -0.84,-0.07 -1.68,0.02 -2.52,0.29zm16.16 34.52l-1.51 -3.24c1.34,-0.77 2.55,-1.97 3.64,-3.63 0.58,-0.89 0.99,-1.92 1.22,-3.09 0.24,-1.16 0.28,-2.32 0.12,-3.51 -0.09,-0.65 -0.07,-1.15 0.06,-1.51 0.13,-0.35 0.39,-0.61 0.79,-0.79 0.42,-0.21 0.85,-0.22 1.28,-0.02 0.44,0.18 0.76,0.52 0.99,1 0.37,0.79 0.51,1.9 0.43,3.33 -0.08,1.42 -0.38,2.85 -0.89,4.25 -0.62,1.73 -1.42,3.15 -2.4,4.31 -0.97,1.14 -2.21,2.1 -3.73,2.9z"/>
   <path id="_9" class="fil1" d="M178.28 195.25l-11.86 5.53 -0.69 0.32c-0.63,0.29 -1.18,0.4 -1.64,0.32 -0.46,-0.07 -0.79,-0.34 -0.99,-0.78 -0.34,-0.73 -0.21,-1.38 0.39,-1.94 0.49,-0.46 0.78,-0.74 0.86,-0.83 0.07,-0.09 0.13,-0.24 0.16,-0.45 0.08,-0.39 -0.02,-0.89 -0.31,-1.51l-12.45 -26.67c-0.29,-0.62 -0.6,-1.02 -0.95,-1.2 -0.18,-0.11 -0.32,-0.17 -0.44,-0.17 -0.12,0.01 -0.52,0.04 -1.19,0.12 -0.82,0.1 -1.4,-0.21 -1.74,-0.94 -0.2,-0.45 -0.19,-0.87 0.04,-1.27 0.24,-0.4 0.67,-0.75 1.3,-1.04l0.7 -0.32 11.86 -5.53 0.69 -0.32c0.63,-0.3 1.18,-0.41 1.63,-0.33 0.46,0.08 0.8,0.34 1,0.78 0.34,0.73 0.21,1.37 -0.39,1.94 -0.5,0.46 -0.78,0.74 -0.86,0.83 -0.07,0.09 -0.13,0.24 -0.16,0.45 -0.08,0.38 0.02,0.88 0.31,1.51l12.44 26.66c0.29,0.62 0.61,1.03 0.96,1.21 0.18,0.11 0.32,0.17 0.44,0.17 0.12,0 0.52,-0.04 1.19,-0.12 0.81,-0.1 1.4,0.21 1.74,0.94 0.2,0.44 0.19,0.86 -0.04,1.26 -0.24,0.4 -0.67,0.76 -1.31,1.06l-0.69 0.32z"/>
   <path id="_10" class="fil1" d="M182.93 148.81l14.59 31.29c0.33,0.71 0.69,1.14 1.1,1.32 0.22,0.11 0.41,0.16 0.55,0.14 0.15,-0.01 0.61,-0.09 1.38,-0.24 0.96,-0.2 1.61,0.09 1.97,0.87 0.22,0.46 0.16,0.94 -0.17,1.44 -0.24,0.37 -0.75,0.74 -1.53,1.11l-0.91 0.42 -11.86 5.53 -0.69 0.32c-0.63,0.29 -1.18,0.4 -1.63,0.32 -0.47,-0.07 -0.8,-0.34 -1,-0.78 -0.34,-0.72 -0.21,-1.38 0.39,-1.94 0.5,-0.46 0.78,-0.74 0.86,-0.83 0.07,-0.09 0.13,-0.24 0.16,-0.45 0.08,-0.38 -0.02,-0.88 -0.31,-1.51l-12.44 -26.66c-0.29,-0.63 -0.61,-1.03 -0.96,-1.21 -0.18,-0.11 -0.32,-0.17 -0.44,-0.17 -0.12,0.01 -0.52,0.04 -1.19,0.12 -0.81,0.1 -1.4,-0.21 -1.74,-0.94 -0.2,-0.44 -0.19,-0.86 0.04,-1.27 0.24,-0.4 0.67,-0.75 1.31,-1.04l0.69 -0.32 11.83 -5.52zm12.74 21.36l-1.33 -2.85c0.69,-0.54 1.15,-0.97 1.37,-1.32 0.22,-0.34 0.35,-0.76 0.4,-1.29 0.05,-0.86 -0.2,-1.88 -0.74,-3.06l-3.98 -8.51c-0.39,-0.85 -0.74,-1.44 -1.06,-1.78 -0.31,-0.35 -0.73,-0.61 -1.26,-0.77 -0.75,-0.26 -1.59,-0.25 -2.51,0.03l-1.35 -2.87c3.66,-1.71 6.52,-2.62 8.57,-2.74 2.38,-0.13 4.54,0.35 6.48,1.45 1.97,1.14 3.54,2.93 4.68,5.38 1.27,2.74 1.71,5.26 1.31,7.56 -0.4,2.28 -1.5,4.34 -3.29,6.17 -1.48,1.49 -3.91,3.03 -7.29,4.6z"/>
   <path id="_11" class="fil1" d="M217.63 132.63l16.96 36.36 -11.83 5.51 -0.69 0.33c-0.63,0.29 -1.19,0.4 -1.64,0.32 -0.46,-0.07 -0.79,-0.34 -0.99,-0.79 -0.34,-0.72 -0.21,-1.37 0.39,-1.93 0.49,-0.46 0.77,-0.74 0.85,-0.83 0.07,-0.09 0.13,-0.25 0.16,-0.46 0.08,-0.38 -0.02,-0.88 -0.31,-1.5l-12.44 -26.67c-0.29,-0.62 -0.6,-1.02 -0.95,-1.2 -0.18,-0.11 -0.32,-0.17 -0.44,-0.17 -0.12,0.01 -0.52,0.04 -1.2,0.12 -0.81,0.1 -1.39,-0.21 -1.73,-0.95 -0.2,-0.44 -0.19,-0.86 0.04,-1.26 0.24,-0.4 0.67,-0.75 1.3,-1.04l0.7 -0.32 11.82 -5.52zm2.41 -1.13l10.72 -4.99 4.39 9.42c0.26,0.56 0.34,1.01 0.25,1.36 -0.1,0.35 -0.37,0.64 -0.83,0.86 -0.39,0.18 -0.71,0.23 -0.96,0.15 -0.26,-0.07 -0.59,-0.32 -0.98,-0.75 -1.63,-1.75 -3.35,-2.87 -5.16,-3.35 -1.81,-0.47 -3.8,-0.34 -5.97,0.42l-1.46 -3.12zm8.92 19.45l-1.43 -3.09c0.79,-0.98 1.29,-1.88 1.51,-2.69 0.22,-0.82 0.22,-1.78 0,-2.86 -0.18,-0.74 -0.21,-1.29 -0.1,-1.66 0.11,-0.37 0.38,-0.65 0.8,-0.84 0.57,-0.27 1.06,-0.23 1.48,0.12 0.23,0.17 0.54,0.67 0.92,1.5l4.74 10.14c0.39,0.84 0.57,1.47 0.53,1.88 -0.03,0.41 -0.3,0.73 -0.79,0.96 -0.42,0.19 -0.79,0.21 -1.14,0.07 -0.34,-0.14 -0.72,-0.47 -1.14,-0.99 -0.87,-1.1 -1.74,-1.84 -2.6,-2.24 -0.87,-0.4 -1.8,-0.5 -2.78,-0.3zm8.1 16.88l-1.35 -2.87c1.08,-0.72 1.92,-1.41 2.52,-2.08 0.6,-0.68 1.14,-1.52 1.6,-2.53 0.45,-1.01 0.74,-1.98 0.87,-2.89 0.12,-0.91 0.12,-2.04 -0.01,-3.38 -0.07,-0.66 -0.04,-1.15 0.07,-1.45 0.12,-0.31 0.36,-0.54 0.74,-0.72 0.49,-0.23 0.9,-0.24 1.24,-0.04 0.34,0.2 0.67,0.66 1.01,1.4l4.38 9.4 -11.07 5.16z"/>
   <path id="_12" class="fil1" d="M247.09 118.02l1.43 3.06c-0.96,0.81 -1.58,1.67 -1.86,2.57 -0.28,0.9 -0.21,1.8 0.22,2.73 0.42,0.89 1.02,1.55 1.81,1.99 0.79,0.45 1.86,0.72 3.23,0.82 0.93,0.06 2.99,0.06 6.15,-0.01 1.91,-0.05 3.45,0 4.58,0.15 1.15,0.14 2.3,0.45 3.47,0.92 3.12,1.23 5.39,3.36 6.81,6.4 1.06,2.29 1.47,4.65 1.22,7.07 -0.24,2.43 -1.1,4.66 -2.59,6.67 -0.79,1.06 -1.75,2.05 -2.87,2.97 -1.11,0.92 -2.22,1.63 -3.32,2.14l-1.41 -3.03c1.36,-1.09 2.22,-2.12 2.58,-3.11 0.38,-0.98 0.3,-2.03 -0.24,-3.18 -0.55,-1.18 -1.57,-1.98 -3.06,-2.4 -0.98,-0.25 -2.66,-0.35 -5.06,-0.29 -2.63,0.06 -4.45,0.07 -5.44,0.04 -0.99,-0.03 -2,-0.15 -3,-0.35 -4.44,-0.83 -7.58,-3.22 -9.44,-7.18 -0.94,-2.02 -1.4,-4.08 -1.36,-6.19 0.03,-2.1 0.56,-4.02 1.56,-5.77 1.39,-2.42 3.59,-4.42 6.59,-6.02zm3.53 2.08l-1.36 -2.93c1.09,-0.42 2.08,-0.73 2.95,-0.89 0.87,-0.17 2.17,-0.29 3.87,-0.37 0.42,-0.03 0.74,-0.09 0.97,-0.2 0.35,-0.16 0.55,-0.38 0.6,-0.68l0.24 -1c0.11,-0.51 0.37,-0.86 0.78,-1.05 0.47,-0.22 0.9,-0.22 1.28,0.02 0.38,0.24 0.75,0.73 1.09,1.46l4.1 8.79c0.23,0.51 0.28,0.99 0.14,1.45 -0.14,0.45 -0.44,0.79 -0.9,1.02 -0.36,0.16 -0.74,0.2 -1.15,0.11 -0.23,-0.07 -0.44,-0.19 -0.63,-0.35 -0.19,-0.16 -0.44,-0.45 -0.75,-0.89 -0.6,-0.77 -1.35,-1.51 -2.27,-2.21 -0.9,-0.7 -1.84,-1.26 -2.82,-1.68 -1.94,-0.84 -3.99,-1.04 -6.14,-0.6zm11.29 33.33l1.41 3.03c-1.45,0.68 -3.25,1.01 -5.39,0.99 -0.81,0 -1.35,0.02 -1.64,0.04 -0.29,0.03 -0.55,0.1 -0.78,0.2 -0.36,0.17 -0.59,0.35 -0.72,0.55 -0.12,0.2 -0.27,0.61 -0.45,1.27 -0.14,0.53 -0.39,0.89 -0.77,1.06 -0.99,0.47 -1.84,-0.06 -2.55,-1.59l-4.52 -9.69c-0.23,-0.5 -0.28,-0.98 -0.16,-1.46 0.12,-0.47 0.39,-0.83 0.81,-1.05 0.38,-0.2 0.74,-0.23 1.08,-0.09 0.33,0.13 0.72,0.48 1.16,1 1.11,1.34 2.38,2.5 3.76,3.46 1.4,0.97 2.82,1.68 4.28,2.13 1.5,0.47 2.99,0.52 4.48,0.15z"/>
   <path id="_13" class="fil2 str1" d="M33.94 138.71l1.42 3.06c-0.95,0.81 -1.57,1.66 -1.85,2.57 -0.28,0.9 -0.21,1.8 0.22,2.72 0.42,0.9 1.02,1.56 1.8,2 0.8,0.44 1.87,0.71 3.24,0.81 0.93,0.06 2.98,0.06 6.15,-0.01 1.91,-0.05 3.45,0 4.58,0.15 1.14,0.14 2.3,0.46 3.47,0.93 3.12,1.23 5.39,3.36 6.8,6.4 1.07,2.29 1.48,4.64 1.23,7.07 -0.24,2.43 -1.11,4.66 -2.59,6.66 -0.79,1.07 -1.76,2.06 -2.87,2.97 -1.11,0.93 -2.22,1.64 -3.32,2.15l-1.42 -3.03c1.37,-1.09 2.23,-2.13 2.59,-3.11 0.37,-0.98 0.29,-2.04 -0.24,-3.18 -0.55,-1.18 -1.57,-1.99 -3.06,-2.4 -0.98,-0.25 -2.67,-0.35 -5.06,-0.29 -2.63,0.06 -4.45,0.07 -5.44,0.04 -1,-0.03 -2,-0.15 -3,-0.35 -4.45,-0.83 -7.59,-3.22 -9.44,-7.18 -0.95,-2.02 -1.4,-4.09 -1.36,-6.19 0.03,-2.1 0.55,-4.03 1.56,-5.77 1.39,-2.42 3.59,-4.43 6.59,-6.02zm3.53 2.07l-1.36 -2.93c1.09,-0.42 2.07,-0.72 2.95,-0.88 0.87,-0.17 2.16,-0.29 3.87,-0.37 0.42,-0.03 0.74,-0.09 0.97,-0.2 0.34,-0.16 0.54,-0.38 0.59,-0.68l0.24 -1.01c0.11,-0.51 0.38,-0.85 0.79,-1.04 0.47,-0.22 0.9,-0.22 1.28,0.02 0.38,0.24 0.74,0.72 1.08,1.46l4.11 8.78c0.23,0.52 0.28,1 0.14,1.46 -0.14,0.45 -0.44,0.79 -0.9,1.01 -0.37,0.16 -0.75,0.2 -1.15,0.11 -0.23,-0.07 -0.44,-0.18 -0.63,-0.34 -0.19,-0.16 -0.44,-0.45 -0.75,-0.89 -0.6,-0.77 -1.36,-1.52 -2.27,-2.21 -0.9,-0.7 -1.85,-1.26 -2.82,-1.68 -1.95,-0.85 -3.99,-1.05 -6.14,-0.61zm11.29 33.33l1.41 3.03c-1.45,0.69 -3.25,1.02 -5.4,1 -0.8,0 -1.34,0.02 -1.63,0.04 -0.29,0.03 -0.55,0.1 -0.78,0.2 -0.36,0.17 -0.6,0.35 -0.73,0.55 -0.12,0.2 -0.27,0.61 -0.44,1.26 -0.14,0.53 -0.39,0.9 -0.77,1.07 -0.99,0.47 -1.85,-0.06 -2.55,-1.59l-4.52 -9.69c-0.23,-0.5 -0.28,-0.98 -0.16,-1.47 0.12,-0.47 0.39,-0.82 0.81,-1.04 0.38,-0.2 0.74,-0.23 1.07,-0.09 0.33,0.13 0.73,0.47 1.17,0.99 1.11,1.35 2.37,2.5 3.76,3.47 1.39,0.97 2.82,1.68 4.28,2.12 1.5,0.47 2.99,0.52 4.48,0.15z"/>
   <path id="_14" class="fil2 str1" d="M72.41 121.64l14.59 31.29c0.33,0.71 0.69,1.14 1.1,1.32 0.22,0.11 0.41,0.16 0.55,0.14 0.15,-0.01 0.61,-0.09 1.38,-0.24 0.96,-0.2 1.61,0.09 1.97,0.87 0.22,0.46 0.16,0.94 -0.17,1.44 -0.24,0.37 -0.76,0.75 -1.56,1.12l-0.88 0.41 -11.86 5.53 -0.87 0.4c-0.77,0.36 -1.41,0.51 -1.92,0.46 -0.51,-0.06 -0.88,-0.32 -1.1,-0.8 -0.36,-0.78 -0.17,-1.47 0.59,-2.06 0.6,-0.5 0.96,-0.79 1.06,-0.9 0.1,-0.1 0.18,-0.27 0.22,-0.5 0.12,-0.42 0.02,-0.99 -0.3,-1.68l-14.6 -31.3 11.8 -5.5zm9.27 -4.32l5.08 10.89c0.24,0.52 0.29,1.02 0.15,1.47 -0.15,0.46 -0.45,0.8 -0.9,1.01 -0.45,0.2 -0.88,0.23 -1.31,0.07 -0.43,-0.15 -0.81,-0.47 -1.14,-0.94l-1.02 -1.51c-1.04,-1.53 -2.22,-2.73 -3.54,-3.58 -0.83,-0.52 -1.77,-0.83 -2.8,-0.93l-1.51 -3.22 6.99 -3.26zm-30.22 14.09l6.98 -3.26 1.51 3.22c-0.62,0.88 -0.98,1.79 -1.09,2.75 -0.19,1.57 -0.04,3.23 0.46,5.02l0.51 1.74c0.15,0.57 0.15,1.06 -0.01,1.49 -0.15,0.43 -0.46,0.74 -0.9,0.95 -0.46,0.21 -0.91,0.23 -1.35,0.04 -0.44,-0.18 -0.78,-0.53 -1.03,-1.05l-5.08 -10.9z"/>
   <path id="_15" class="fil2 str1" d="M99.45 109.03l14.59 31.29c0.33,0.71 0.69,1.14 1.1,1.32 0.22,0.11 0.41,0.16 0.55,0.14 0.15,-0.01 0.61,-0.09 1.38,-0.24 0.96,-0.2 1.61,0.09 1.97,0.87 0.22,0.46 0.16,0.94 -0.17,1.44 -0.24,0.37 -0.75,0.74 -1.53,1.11l-0.91 0.42 -11.86 5.53 -0.69 0.32c-0.63,0.29 -1.18,0.4 -1.63,0.32 -0.47,-0.07 -0.8,-0.34 -1,-0.78 -0.34,-0.72 -0.21,-1.38 0.39,-1.94 0.5,-0.46 0.78,-0.74 0.86,-0.83 0.07,-0.09 0.13,-0.24 0.16,-0.45 0.08,-0.38 -0.02,-0.88 -0.31,-1.51l-12.44 -26.66c-0.3,-0.63 -0.61,-1.03 -0.96,-1.21 -0.18,-0.11 -0.32,-0.17 -0.44,-0.17 -0.12,0.01 -0.52,0.04 -1.19,0.12 -0.82,0.1 -1.4,-0.21 -1.74,-0.94 -0.2,-0.44 -0.19,-0.86 0.04,-1.26 0.24,-0.41 0.67,-0.76 1.31,-1.05l0.69 -0.32 11.83 -5.52zm16.83 14.72c1.75,-0.51 3.14,-0.82 4.16,-0.93 1.02,-0.11 2.01,-0.07 2.96,0.11 1.01,0.2 1.88,0.59 2.64,1.16 0.76,0.58 1.34,1.3 1.73,2.15l2.58 5.52c0.26,0.57 0.58,0.77 0.95,0.6 0.14,-0.06 0.24,-0.16 0.3,-0.29 0.06,-0.12 0.13,-0.34 0.2,-0.66 0.15,-0.82 0.46,-1.33 0.93,-1.55 0.3,-0.14 0.67,-0.12 1.12,0.06 0.45,0.18 0.75,0.43 0.9,0.75 0.25,0.56 0.3,1.35 0.15,2.38 -0.16,1.03 -0.48,2.05 -0.97,3.03 -0.45,0.93 -1.04,1.73 -1.78,2.38 -0.73,0.65 -1.67,1.25 -2.84,1.78 -2.33,1.1 -4.48,1.29 -6.42,0.56 -1.94,-0.74 -3.47,-2.29 -4.59,-4.7l-2.09 -4.47c-0.46,-1 -0.74,-1.57 -0.83,-1.72 -0.42,-0.67 -0.95,-1.16 -1.6,-1.49 -0.79,-0.39 -1.69,-0.42 -2.69,-0.07l-1.33 -2.85c0.88,-0.6 1.44,-1.16 1.69,-1.7 0.2,-0.48 0.27,-0.96 0.21,-1.43 -0.06,-0.47 -0.27,-1.11 -0.66,-1.9l-3.28 -7.06c-0.52,-1.12 -1.13,-1.85 -1.82,-2.2 -0.69,-0.35 -1.68,-0.41 -2.96,-0.2l-1.39 -2.96 0.7 -0.32c1.97,-0.92 3.69,-1.64 5.14,-2.14 2.15,-0.77 4.31,-0.95 6.46,-0.55 3.1,0.56 5.36,2.38 6.79,5.43 1.16,2.51 1.34,4.91 0.52,7.24 -0.34,0.98 -0.86,1.9 -1.54,2.73 -0.68,0.84 -1.79,1.94 -3.34,3.31z"/>
   <path id="_16" class="fil2 str1" d="M138.11 93.62c-0.75,0.75 -1.18,1.48 -1.3,2.2 -0.11,0.72 0.08,1.62 0.58,2.69l11.1 23.81c0.73,1.56 1.45,2.57 2.17,3.01 0.6,0.37 1.38,0.47 2.37,0.29l1.37 2.93c-4.1,1.51 -8.09,1.57 -11.98,0.17 -5.08,-1.83 -9.05,-5.82 -11.92,-11.98 -1.45,-3.09 -2.29,-6.1 -2.54,-9.02 -0.24,-2.92 0.12,-5.67 1.1,-8.25 0.76,-1.97 1.75,-3.67 3.01,-5.09 1.26,-1.44 2.83,-2.64 4.71,-3.63l1.33 2.87zm2.17 -1l-1.33 -2.88c1.96,-0.81 3.9,-1.23 5.81,-1.28 1.92,-0.05 3.88,0.27 5.86,0.96 5.29,1.84 9.39,5.9 12.32,12.19 2.87,6.16 3.38,11.77 1.52,16.83 -1.44,3.92 -4.06,6.95 -7.9,9.09l-1.36 -2.93c0.42,-0.32 0.71,-0.63 0.9,-0.92 0.18,-0.28 0.3,-0.64 0.37,-1.06 0.14,-0.96 -0.13,-2.17 -0.82,-3.64l-11.1 -23.81c-0.44,-0.94 -0.95,-1.62 -1.53,-2.02 -0.38,-0.27 -0.78,-0.44 -1.18,-0.52 -0.39,-0.07 -0.91,-0.08 -1.56,-0.01z"/>
   <path id="_17" class="fil2 str1" d="M172.78 74.84l25.64 18.01 5.48 11.74 -7.27 3.39 -32.59 -22.74c-0.71,-0.5 -1.24,-0.82 -1.61,-0.97 -0.38,-0.15 -0.79,-0.19 -1.24,-0.14l-1.18 0.1c-0.31,0.04 -0.59,-0.02 -0.86,-0.18 -0.28,-0.15 -0.48,-0.37 -0.61,-0.66 -0.14,-0.31 -0.19,-0.62 -0.15,-0.95 0.04,-0.33 0.16,-0.61 0.38,-0.84 0.24,-0.27 1.03,-0.7 2.34,-1.32l11.67 -5.44zm-6.82 14.56l5.01 3.37 6.67 14.27c0.58,1.25 1.26,2.17 2.05,2.77 0.79,0.61 1.76,0.95 2.9,1.06l1 0.08c0.6,0.05 1.01,0.34 1.26,0.87 0.19,0.41 0.18,0.82 -0.03,1.25 -0.18,0.36 -0.71,0.74 -1.6,1.16l-6.16 2.88c-1.61,0.75 -2.62,0.66 -3.06,-0.27 -0.15,-0.32 -0.19,-0.61 -0.1,-0.87 0.08,-0.27 0.33,-0.69 0.75,-1.27 1.26,-1.74 1.32,-3.85 0.16,-6.34l-8.85 -18.96zm30.48 -0.82l-5.06 -3.45 -3.44 -7.38c-0.69,-1.49 -1.45,-2.53 -2.24,-3.12 -0.8,-0.59 -1.88,-0.92 -3.24,-0.97 -0.45,-0.01 -0.79,-0.08 -1.03,-0.22 -0.24,-0.14 -0.43,-0.36 -0.58,-0.68 -0.22,-0.48 -0.23,-0.9 -0.03,-1.26 0.21,-0.37 0.65,-0.72 1.33,-1.03l6.66 -3.11c0.91,-0.42 1.57,-0.55 1.98,-0.4 0.43,0.14 0.74,0.41 0.92,0.79 0.17,0.39 0.22,0.7 0.14,0.97 -0.08,0.26 -0.37,0.7 -0.86,1.32 -0.71,0.91 -1.07,1.98 -1.09,3.2 0.01,0.88 0.3,1.95 0.87,3.19l5.67 12.15z"/>
   <path id="_18" class="fil2 str1" d="M207.89 57.59l1.38 2.96c-1.4,1.1 -1.6,2.71 -0.62,4.81l11.57 24.8c0.45,0.97 0.92,1.64 1.44,2.03 0.43,0.32 1.08,0.46 1.97,0.41l1.4 3.01c-0.57,0.26 -1.11,0.46 -1.62,0.59 -0.51,0.13 -1.22,0.25 -2.13,0.35 -2.16,0.24 -4.31,0.05 -6.44,-0.57 -2.11,-0.61 -4.09,-1.6 -5.93,-2.97 -2.84,-2.15 -5.17,-5.18 -7,-9.1 -1.75,-3.78 -2.65,-7.44 -2.66,-11 -0.02,-3.56 0.85,-6.76 2.59,-9.61 1,-1.66 2.25,-3.09 3.71,-4.3 0.61,-0.5 1.4,-0.97 2.34,-1.41zm3.52 1.89l-1.34 -2.88c3.01,-1.08 5.63,-1.65 7.86,-1.73 0.67,-0.01 1.15,-0.08 1.45,-0.22 0.28,-0.13 0.47,-0.3 0.56,-0.5 0.09,-0.2 0.22,-0.73 0.39,-1.56 0.11,-0.59 0.41,-0.99 0.88,-1.22 0.51,-0.23 0.92,-0.25 1.25,-0.07 0.33,0.18 0.65,0.59 0.95,1.23l4.83 10.36c0.62,1.33 0.44,2.22 -0.55,2.68 -0.51,0.24 -0.94,0.27 -1.3,0.12 -0.36,-0.15 -0.83,-0.57 -1.4,-1.25 -0.74,-0.86 -1.75,-1.8 -3.06,-2.8 -1.31,-0.99 -2.45,-1.72 -3.44,-2.19 -1.15,-0.55 -2.26,-0.82 -3.37,-0.81 -1.09,0 -2.33,0.28 -3.71,0.84zm25.9 24.12c-0.37,1.04 -0.99,2.2 -1.82,3.49 -0.84,1.29 -1.68,2.39 -2.54,3.31 -0.78,0.81 -1.7,1.61 -2.76,2.38 -1.05,0.78 -2.02,1.37 -2.91,1.78l-1.4 -3.01c0.45,-0.36 0.77,-0.69 0.94,-0.99 0.18,-0.3 0.28,-0.65 0.31,-1.05 0.04,-0.69 -0.13,-1.46 -0.53,-2.32l-3.62 -7.76c-0.32,-0.69 -0.69,-1.13 -1.09,-1.31 -0.2,-0.13 -0.39,-0.18 -0.53,-0.17 -0.15,0.02 -0.6,0.1 -1.36,0.27 -0.94,0.19 -1.59,-0.12 -1.96,-0.9 -0.22,-0.46 -0.19,-0.91 0.09,-1.34 0.28,-0.43 0.82,-0.83 1.59,-1.2l0.87 -0.4 9.75 -4.54c0.81,-0.38 1.43,-0.53 1.86,-0.46 0.43,0.06 0.78,0.37 1.03,0.92 0.16,0.34 0.22,0.65 0.19,0.93 -0.03,0.28 -0.17,0.63 -0.41,1.06 -0.24,0.41 -0.35,0.74 -0.35,1 0.01,0.25 0.15,0.66 0.42,1.23l4.23 9.08z"/>
   <path id="_19" class="fil2 str1" d="M59.25 206.49l14.59 31.29c0.33,0.7 0.69,1.13 1.1,1.31 0.22,0.11 0.41,0.16 0.55,0.14 0.15,-0.01 0.61,-0.09 1.38,-0.24 0.96,-0.2 1.61,0.09 1.97,0.87 0.22,0.47 0.16,0.95 -0.17,1.44 -0.24,0.37 -0.75,0.74 -1.53,1.11l-0.91 0.42 -11.86 5.53 -0.69 0.32c-0.63,0.29 -1.18,0.4 -1.63,0.32 -0.47,-0.07 -0.8,-0.34 -1,-0.78 -0.34,-0.72 -0.21,-1.37 0.39,-1.93 0.5,-0.47 0.78,-0.75 0.86,-0.84 0.07,-0.09 0.13,-0.24 0.16,-0.45 0.08,-0.38 -0.02,-0.88 -0.31,-1.5l-12.44 -26.67c-0.29,-0.62 -0.61,-1.02 -0.96,-1.2 -0.18,-0.12 -0.32,-0.18 -0.44,-0.18 -0.12,0.01 -0.52,0.04 -1.19,0.12 -0.81,0.11 -1.4,-0.21 -1.74,-0.94 -0.2,-0.44 -0.19,-0.86 0.04,-1.26 0.24,-0.4 0.67,-0.75 1.31,-1.05l0.69 -0.32 11.83 -5.51zm16.83 14.71c1.75,-0.51 3.14,-0.82 4.16,-0.93 1.02,-0.11 2.01,-0.07 2.97,0.11 1,0.2 1.87,0.59 2.63,1.16 0.76,0.59 1.34,1.3 1.73,2.15l2.58 5.52c0.26,0.57 0.58,0.77 0.95,0.6 0.14,-0.06 0.24,-0.16 0.3,-0.29 0.06,-0.12 0.13,-0.34 0.2,-0.66 0.15,-0.81 0.46,-1.33 0.93,-1.55 0.3,-0.14 0.67,-0.12 1.12,0.06 0.45,0.18 0.75,0.43 0.9,0.76 0.25,0.55 0.3,1.34 0.15,2.37 -0.16,1.04 -0.48,2.05 -0.97,3.03 -0.45,0.94 -1.04,1.73 -1.78,2.38 -0.73,0.65 -1.67,1.26 -2.83,1.79 -2.34,1.09 -4.49,1.28 -6.43,0.55 -1.94,-0.73 -3.47,-2.29 -4.59,-4.7l-2.09 -4.47c-0.46,-0.99 -0.74,-1.57 -0.83,-1.72 -0.42,-0.67 -0.95,-1.16 -1.6,-1.49 -0.79,-0.38 -1.69,-0.41 -2.68,-0.07l-1.34 -2.85c0.88,-0.59 1.45,-1.15 1.69,-1.7 0.2,-0.48 0.27,-0.96 0.21,-1.43 -0.06,-0.46 -0.27,-1.1 -0.66,-1.9l-3.28 -7.06c-0.52,-1.11 -1.13,-1.85 -1.82,-2.2 -0.69,-0.35 -1.68,-0.41 -2.96,-0.2l-1.39 -2.96 0.7 -0.32c1.97,-0.92 3.69,-1.63 5.14,-2.14 2.15,-0.77 4.31,-0.95 6.46,-0.55 3.1,0.56 5.36,2.38 6.79,5.43 1.16,2.51 1.34,4.92 0.52,7.24 -0.34,0.99 -0.85,1.9 -1.54,2.73 -0.68,0.85 -1.79,1.94 -3.34,3.31z"/>
   <path id="_20" class="fil2 str1" d="M97.39 188.7l16.96 36.36 -11.83 5.51 -0.69 0.33c-0.64,0.29 -1.19,0.4 -1.64,0.32 -0.46,-0.07 -0.79,-0.34 -0.99,-0.79 -0.34,-0.72 -0.21,-1.37 0.39,-1.93 0.49,-0.46 0.77,-0.74 0.85,-0.83 0.07,-0.09 0.13,-0.25 0.16,-0.46 0.08,-0.38 -0.02,-0.88 -0.31,-1.5l-12.44 -26.67c-0.29,-0.62 -0.6,-1.02 -0.95,-1.2 -0.18,-0.11 -0.32,-0.17 -0.44,-0.17 -0.12,0.01 -0.53,0.04 -1.2,0.12 -0.81,0.1 -1.39,-0.21 -1.73,-0.95 -0.2,-0.44 -0.19,-0.86 0.04,-1.26 0.24,-0.4 0.67,-0.75 1.3,-1.04l0.69 -0.32 11.83 -5.52zm2.41 -1.13l10.71 -4.99 4.4 9.42c0.26,0.56 0.34,1.01 0.25,1.36 -0.1,0.35 -0.37,0.64 -0.83,0.86 -0.39,0.18 -0.72,0.23 -0.97,0.15 -0.26,-0.07 -0.58,-0.32 -0.97,-0.75 -1.63,-1.75 -3.35,-2.87 -5.17,-3.35 -1.8,-0.47 -3.79,-0.34 -5.97,0.42l-1.45 -3.12zm8.92 19.45l-1.44 -3.09c0.8,-0.98 1.3,-1.88 1.52,-2.69 0.22,-0.82 0.22,-1.78 0,-2.86 -0.18,-0.74 -0.21,-1.29 -0.1,-1.66 0.11,-0.37 0.38,-0.65 0.8,-0.84 0.56,-0.27 1.05,-0.23 1.48,0.12 0.23,0.17 0.54,0.67 0.92,1.5l4.73 10.14c0.4,0.84 0.58,1.47 0.54,1.88 -0.03,0.41 -0.3,0.73 -0.8,0.96 -0.41,0.19 -0.78,0.21 -1.13,0.07 -0.34,-0.14 -0.72,-0.47 -1.14,-0.99 -0.88,-1.1 -1.74,-1.84 -2.6,-2.24 -0.88,-0.4 -1.8,-0.5 -2.78,-0.3zm8.09 16.88l-1.34 -2.87c1.07,-0.72 1.92,-1.41 2.52,-2.08 0.6,-0.68 1.13,-1.52 1.59,-2.53 0.46,-1.01 0.75,-1.98 0.88,-2.89 0.12,-0.91 0.12,-2.04 -0.01,-3.38 -0.07,-0.66 -0.04,-1.15 0.07,-1.45 0.12,-0.31 0.36,-0.54 0.74,-0.72 0.49,-0.23 0.9,-0.24 1.23,-0.04 0.34,0.2 0.68,0.66 1.02,1.4l4.38 9.4 -11.08 5.16z"/>
   <path id="_21" class="fil2 str1" d="M129.26 172.97l1.49 3.22c-0.97,0.65 -1.54,1.47 -1.7,2.48 -0.16,1.01 0.09,2.21 0.75,3.64l10.26 22 0.53 1.14c0.19,0.41 0.48,0.81 0.86,1.18 0.38,0.38 0.78,0.66 1.2,0.85 0.44,0.22 0.86,0.34 1.25,0.34 0.4,0 0.89,-0.1 1.46,-0.31l1.51 3.25c-3.45,1.62 -6.86,2.12 -10.24,1.5 -2.98,-0.53 -5.66,-1.86 -8.05,-4.01 -2.37,-2.14 -4.42,-5.03 -6.13,-8.69 -1.24,-2.68 -2.04,-5.34 -2.38,-8 -0.34,-2.67 -0.2,-5.18 0.4,-7.54 0.62,-2.39 1.68,-4.56 3.18,-6.53 1.49,-1.98 3.16,-3.39 4.98,-4.24l0.63 -0.28zm3.62 2.26l-1.51 -3.22c0.94,-0.27 1.72,-0.44 2.33,-0.53 0.62,-0.09 1.76,-0.21 3.42,-0.36 1.06,-0.1 1.73,-0.22 2.04,-0.36 0.51,-0.24 0.79,-0.65 0.84,-1.24l0.04 -0.81c0.02,-0.53 0.32,-0.93 0.91,-1.2 0.48,-0.22 0.91,-0.25 1.3,-0.09 0.39,0.17 0.71,0.52 0.97,1.07l5.16 11.08c0.34,0.72 0.42,1.32 0.25,1.79 -0.16,0.48 -0.45,0.81 -0.86,1 -0.42,0.2 -0.84,0.22 -1.22,0.06 -0.39,-0.15 -0.8,-0.5 -1.25,-1.06 -1.03,-1.23 -1.91,-2.16 -2.64,-2.8 -1.54,-1.33 -3.06,-2.29 -4.52,-2.88 -0.99,-0.42 -1.9,-0.66 -2.74,-0.74 -0.84,-0.07 -1.68,0.02 -2.52,0.29zm16.16 34.52l-1.51 -3.24c1.34,-0.77 2.55,-1.97 3.64,-3.63 0.58,-0.89 0.99,-1.92 1.22,-3.09 0.24,-1.16 0.28,-2.32 0.12,-3.51 -0.09,-0.65 -0.07,-1.15 0.06,-1.51 0.13,-0.35 0.39,-0.61 0.79,-0.79 0.42,-0.21 0.85,-0.22 1.28,-0.02 0.44,0.18 0.76,0.52 0.99,1 0.37,0.79 0.51,1.9 0.43,3.33 -0.08,1.42 -0.38,2.85 -0.89,4.25 -0.62,1.73 -1.42,3.15 -2.4,4.31 -0.97,1.14 -2.21,2.1 -3.73,2.9z"/>
   <path id="_22" class="fil2 str1" d="M178.28 195.25l-11.86 5.53 -0.69 0.32c-0.63,0.29 -1.18,0.4 -1.64,0.32 -0.46,-0.07 -0.79,-0.34 -0.99,-0.78 -0.34,-0.73 -0.21,-1.38 0.39,-1.94 0.49,-0.46 0.78,-0.74 0.86,-0.83 0.07,-0.09 0.13,-0.24 0.16,-0.45 0.08,-0.39 -0.02,-0.89 -0.31,-1.51l-12.45 -26.67c-0.29,-0.62 -0.6,-1.02 -0.95,-1.2 -0.18,-0.11 -0.32,-0.17 -0.44,-0.17 -0.12,0.01 -0.52,0.04 -1.19,0.12 -0.82,0.1 -1.4,-0.21 -1.74,-0.94 -0.2,-0.45 -0.19,-0.87 0.04,-1.27 0.24,-0.4 0.67,-0.75 1.3,-1.04l0.7 -0.32 11.86 -5.53 0.69 -0.32c0.63,-0.3 1.18,-0.41 1.63,-0.33 0.46,0.08 0.8,0.34 1,0.78 0.34,0.73 0.21,1.37 -0.39,1.94 -0.5,0.46 -0.78,0.74 -0.86,0.83 -0.07,0.09 -0.13,0.24 -0.16,0.45 -0.08,0.38 0.02,0.88 0.31,1.51l12.44 26.66c0.29,0.62 0.61,1.03 0.96,1.21 0.18,0.11 0.32,0.17 0.44,0.17 0.12,0 0.52,-0.04 1.19,-0.12 0.81,-0.1 1.4,0.21 1.74,0.94 0.2,0.44 0.19,0.86 -0.04,1.26 -0.24,0.4 -0.67,0.76 -1.31,1.06l-0.69 0.32z"/>
   <path id="_23" class="fil2 str1" d="M182.93 148.81l14.59 31.29c0.33,0.71 0.69,1.14 1.1,1.32 0.22,0.11 0.41,0.16 0.55,0.14 0.15,-0.01 0.61,-0.09 1.38,-0.24 0.96,-0.2 1.61,0.09 1.97,0.87 0.22,0.46 0.16,0.94 -0.17,1.44 -0.24,0.37 -0.75,0.74 -1.53,1.11l-0.91 0.42 -11.86 5.53 -0.69 0.32c-0.63,0.29 -1.18,0.4 -1.63,0.32 -0.47,-0.07 -0.8,-0.34 -1,-0.78 -0.34,-0.72 -0.21,-1.38 0.39,-1.94 0.5,-0.46 0.78,-0.74 0.86,-0.83 0.07,-0.09 0.13,-0.24 0.16,-0.45 0.08,-0.38 -0.02,-0.88 -0.31,-1.51l-12.44 -26.66c-0.29,-0.63 -0.61,-1.03 -0.96,-1.21 -0.18,-0.11 -0.32,-0.17 -0.44,-0.17 -0.12,0.01 -0.52,0.04 -1.19,0.12 -0.81,0.1 -1.4,-0.21 -1.74,-0.94 -0.2,-0.44 -0.19,-0.86 0.04,-1.27 0.24,-0.4 0.67,-0.75 1.31,-1.04l0.69 -0.32 11.83 -5.52zm12.74 21.36l-1.33 -2.85c0.69,-0.54 1.15,-0.97 1.37,-1.32 0.22,-0.34 0.35,-0.76 0.4,-1.29 0.05,-0.86 -0.2,-1.88 -0.74,-3.06l-3.98 -8.51c-0.39,-0.85 -0.74,-1.44 -1.06,-1.78 -0.31,-0.35 -0.73,-0.61 -1.26,-0.77 -0.75,-0.26 -1.59,-0.25 -2.51,0.03l-1.35 -2.87c3.66,-1.71 6.52,-2.62 8.57,-2.74 2.38,-0.13 4.54,0.35 6.48,1.45 1.97,1.14 3.54,2.93 4.68,5.38 1.27,2.74 1.71,5.26 1.31,7.56 -0.4,2.28 -1.5,4.34 -3.29,6.17 -1.48,1.49 -3.91,3.03 -7.29,4.6z"/>
   <path id="_24" class="fil2 str1" d="M217.63 132.63l16.96 36.36 -11.83 5.51 -0.69 0.33c-0.63,0.29 -1.19,0.4 -1.64,0.32 -0.46,-0.07 -0.79,-0.34 -0.99,-0.79 -0.34,-0.72 -0.21,-1.37 0.39,-1.93 0.49,-0.46 0.77,-0.74 0.85,-0.83 0.07,-0.09 0.13,-0.25 0.16,-0.46 0.08,-0.38 -0.02,-0.88 -0.31,-1.5l-12.44 -26.67c-0.29,-0.62 -0.6,-1.02 -0.95,-1.2 -0.18,-0.11 -0.32,-0.17 -0.44,-0.17 -0.12,0.01 -0.52,0.04 -1.2,0.12 -0.81,0.1 -1.39,-0.21 -1.73,-0.95 -0.2,-0.44 -0.19,-0.86 0.04,-1.26 0.24,-0.4 0.67,-0.75 1.3,-1.04l0.7 -0.32 11.82 -5.52zm2.41 -1.13l10.72 -4.99 4.39 9.42c0.26,0.56 0.34,1.01 0.25,1.36 -0.1,0.35 -0.37,0.64 -0.83,0.86 -0.39,0.18 -0.71,0.23 -0.96,0.15 -0.26,-0.07 -0.59,-0.32 -0.98,-0.75 -1.63,-1.75 -3.35,-2.87 -5.16,-3.35 -1.81,-0.47 -3.8,-0.34 -5.97,0.42l-1.46 -3.12zm8.92 19.45l-1.43 -3.09c0.79,-0.98 1.29,-1.88 1.51,-2.69 0.22,-0.82 0.22,-1.78 0,-2.86 -0.18,-0.74 -0.21,-1.29 -0.1,-1.66 0.11,-0.37 0.38,-0.65 0.8,-0.84 0.57,-0.27 1.06,-0.23 1.48,0.12 0.23,0.17 0.54,0.67 0.92,1.5l4.74 10.14c0.39,0.84 0.57,1.47 0.53,1.88 -0.03,0.41 -0.3,0.73 -0.79,0.96 -0.42,0.19 -0.79,0.21 -1.14,0.07 -0.34,-0.14 -0.72,-0.47 -1.14,-0.99 -0.87,-1.1 -1.74,-1.84 -2.6,-2.24 -0.87,-0.4 -1.8,-0.5 -2.78,-0.3zm8.1 16.88l-1.35 -2.87c1.08,-0.72 1.92,-1.41 2.52,-2.08 0.6,-0.68 1.14,-1.52 1.6,-2.53 0.45,-1.01 0.74,-1.98 0.87,-2.89 0.12,-0.91 0.12,-2.04 -0.01,-3.38 -0.07,-0.66 -0.04,-1.15 0.07,-1.45 0.12,-0.31 0.36,-0.54 0.74,-0.72 0.49,-0.23 0.9,-0.24 1.24,-0.04 0.34,0.2 0.67,0.66 1.01,1.4l4.38 9.4 -11.07 5.16z"/>
   <path id="_25" class="fil2 str1" d="M247.09 118.02l1.43 3.06c-0.96,0.81 -1.58,1.67 -1.86,2.57 -0.28,0.9 -0.21,1.8 0.22,2.73 0.42,0.89 1.02,1.55 1.81,1.99 0.79,0.45 1.86,0.72 3.23,0.82 0.93,0.06 2.99,0.06 6.15,-0.01 1.91,-0.05 3.45,0 4.58,0.15 1.15,0.14 2.3,0.45 3.47,0.92 3.12,1.23 5.39,3.36 6.81,6.4 1.06,2.29 1.47,4.65 1.22,7.07 -0.24,2.43 -1.1,4.66 -2.59,6.67 -0.79,1.06 -1.75,2.05 -2.87,2.97 -1.11,0.92 -2.22,1.63 -3.32,2.14l-1.41 -3.03c1.36,-1.09 2.22,-2.12 2.58,-3.11 0.38,-0.98 0.3,-2.03 -0.24,-3.18 -0.55,-1.18 -1.57,-1.98 -3.06,-2.4 -0.98,-0.25 -2.66,-0.35 -5.06,-0.29 -2.63,0.06 -4.45,0.07 -5.44,0.04 -0.99,-0.03 -2,-0.15 -3,-0.35 -4.44,-0.83 -7.58,-3.22 -9.44,-7.18 -0.94,-2.02 -1.4,-4.08 -1.36,-6.19 0.03,-2.1 0.56,-4.02 1.56,-5.77 1.39,-2.42 3.59,-4.42 6.59,-6.02zm3.53 2.08l-1.36 -2.93c1.09,-0.42 2.08,-0.73 2.95,-0.89 0.87,-0.17 2.17,-0.29 3.87,-0.37 0.42,-0.03 0.74,-0.09 0.97,-0.2 0.35,-0.16 0.55,-0.38 0.6,-0.68l0.24 -1c0.11,-0.51 0.37,-0.86 0.78,-1.05 0.47,-0.22 0.9,-0.22 1.28,0.02 0.38,0.24 0.75,0.73 1.09,1.46l4.1 8.79c0.23,0.51 0.28,0.99 0.14,1.45 -0.14,0.45 -0.44,0.79 -0.9,1.02 -0.36,0.16 -0.74,0.2 -1.15,0.11 -0.23,-0.07 -0.44,-0.19 -0.63,-0.35 -0.19,-0.16 -0.44,-0.45 -0.75,-0.89 -0.6,-0.77 -1.35,-1.51 -2.27,-2.21 -0.9,-0.7 -1.84,-1.26 -2.82,-1.68 -1.94,-0.84 -3.99,-1.04 -6.14,-0.6zm11.29 33.33l1.41 3.03c-1.45,0.68 -3.25,1.01 -5.39,0.99 -0.81,0 -1.35,0.02 -1.64,0.04 -0.29,0.03 -0.55,0.1 -0.78,0.2 -0.36,0.17 -0.59,0.35 -0.72,0.55 -0.12,0.2 -0.27,0.61 -0.45,1.27 -0.14,0.53 -0.39,0.89 -0.77,1.06 -0.99,0.47 -1.84,-0.06 -2.55,-1.59l-4.52 -9.69c-0.23,-0.5 -0.28,-0.98 -0.16,-1.46 0.12,-0.47 0.39,-0.83 0.81,-1.05 0.38,-0.2 0.74,-0.23 1.08,-0.09 0.33,0.13 0.72,0.48 1.16,1 1.11,1.34 2.38,2.5 3.76,3.46 1.4,0.97 2.82,1.68 4.28,2.13 1.5,0.47 2.99,0.52 4.48,0.15z"/>
   <path class="fil3" d="M95.33 52.32c0,-2.02 0.44,-3.51 1.33,-4.48 0.89,-0.98 2.1,-1.46 3.62,-1.46 1.57,0 2.8,0.48 3.69,1.45 0.89,0.96 1.33,2.46 1.33,4.49 0,2.02 -0.44,3.52 -1.33,4.49 -0.89,0.97 -2.1,1.46 -3.62,1.46 -1.57,0 -2.8,-0.48 -3.69,-1.45 -0.89,-0.97 -1.33,-2.47 -1.33,-4.5zm3.37 0c0,1.46 0.17,2.44 0.51,2.94 0.26,0.37 0.62,0.55 1.07,0.55 0.46,0 0.83,-0.18 1.09,-0.55 0.33,-0.5 0.49,-1.48 0.49,-2.94 0,-1.45 -0.16,-2.43 -0.49,-2.92 -0.26,-0.37 -0.63,-0.56 -1.09,-0.56 -0.45,0 -0.81,0.18 -1.07,0.55 -0.34,0.5 -0.51,1.48 -0.51,2.93zm4.88 17.94l-3.2 0 12.03 -23.88 3.13 0 -11.96 23.88zm6.99 -5.95c0,-2.03 0.45,-3.53 1.34,-4.51 0.88,-0.98 2.1,-1.46 3.64,-1.46 1.55,0 2.77,0.48 3.66,1.46 0.89,0.98 1.33,2.48 1.33,4.51 0,2.04 -0.44,3.54 -1.33,4.52 -0.89,0.98 -2.1,1.47 -3.62,1.47 -1.57,0 -2.8,-0.49 -3.68,-1.47 -0.89,-0.98 -1.34,-2.48 -1.34,-4.52zm3.38 0.01c0,1.47 0.16,2.45 0.51,2.94 0.25,0.39 0.61,0.57 1.06,0.57 0.47,0 0.83,-0.18 1.07,-0.55 0.34,-0.5 0.51,-1.49 0.51,-2.96 0,-1.48 -0.16,-2.47 -0.49,-2.97 -0.26,-0.37 -0.62,-0.55 -1.09,-0.55 -0.46,0 -0.82,0.18 -1.06,0.55 -0.35,0.5 -0.51,1.49 -0.51,2.97z"/>
   <ellipse class="fil4 str2" cx="107.93" cy="58.34" rx="21.01" ry="19.64"/>
   <path class="fil3" d="M181.23 236.06c0,-2.02 0.45,-3.51 1.34,-4.49 0.89,-0.97 2.09,-1.46 3.61,-1.46 1.57,0 2.8,0.48 3.69,1.45 0.89,0.97 1.33,2.47 1.33,4.5 0,2.02 -0.44,3.51 -1.33,4.49 -0.89,0.97 -2.1,1.46 -3.62,1.46 -1.57,0 -2.79,-0.49 -3.68,-1.45 -0.89,-0.97 -1.34,-2.47 -1.34,-4.5zm3.38 0c0,1.46 0.17,2.44 0.51,2.93 0.25,0.37 0.61,0.56 1.07,0.56 0.46,0 0.82,-0.19 1.08,-0.56 0.33,-0.49 0.49,-1.47 0.49,-2.93 0,-1.46 -0.16,-2.43 -0.49,-2.92 -0.26,-0.38 -0.62,-0.57 -1.08,-0.57 -0.46,0 -0.82,0.19 -1.07,0.55 -0.34,0.5 -0.51,1.48 -0.51,2.94zm4.87 17.94l-3.2 0 12.03 -23.89 3.13 0 -11.96 23.89zm6.99 -5.96c0,-2.02 0.45,-3.52 1.34,-4.5 0.89,-0.98 2.1,-1.47 3.64,-1.47 1.56,0 2.78,0.49 3.66,1.47 0.89,0.98 1.34,2.48 1.34,4.5 0,2.04 -0.45,3.55 -1.34,4.52 -0.88,0.98 -2.09,1.47 -3.61,1.47 -1.58,0 -2.8,-0.49 -3.69,-1.47 -0.89,-0.97 -1.34,-2.48 -1.34,-4.52zm3.38 0.01c0,1.47 0.17,2.46 0.51,2.95 0.26,0.38 0.62,0.57 1.07,0.57 0.46,0 0.82,-0.18 1.07,-0.56 0.34,-0.5 0.51,-1.49 0.51,-2.96 0,-1.47 -0.17,-2.46 -0.5,-2.96 -0.26,-0.37 -0.62,-0.56 -1.08,-0.56 -0.47,0 -0.82,0.19 -1.07,0.56 -0.34,0.5 -0.51,1.49 -0.51,2.96z"/>
   <ellipse class="fil4 str2" cx="193.84" cy="242.07" rx="21.01" ry="19.64"/>
  </g>
 </g>
</svg>
