<?xml version="1.0" encoding="UTF-8"?>
<!DOCTYPE svg PUBLIC "-//W3C//DTD SVG 1.1//EN" "http://www.w3.org/Graphics/SVG/1.1/DTD/svg11.dtd">
<!-- Creator: CorelDRAW 2021 (64-Bit) -->
<svg xmlns="http://www.w3.org/2000/svg" xml:space="preserve" width="125.614mm" height="80.8415mm" version="1.1" style="shape-rendering:geometricPrecision; text-rendering:geometricPrecision; image-rendering:optimizeQuality; fill-rule:evenodd; clip-rule:evenodd"
viewBox="0 0 17374.48 11181.75"
 xmlns:xlink="http://www.w3.org/1999/xlink"
 xmlns:xodm="http://www.corel.com/coreldraw/odm/2003">
 <defs>
  <style type="text/css">
   <![CDATA[
    .str0 {stroke:black;stroke-width:23.42;stroke-linecap:round;stroke-linejoin:round;stroke-miterlimit:22.9256}
    .fil3 {fill:none;fill-rule:nonzero}
    .fil0 {fill:#663300}
    .fil1 {fill:black;fill-rule:nonzero}
    .fil2 {fill:#FF9933;fill-rule:nonzero}
    .fil4 {fill:#FFFFCC;fill-rule:nonzero}
   ]]>
  </style>
 </defs>
 <g id="Layer_x0020_1">
  <metadata id="CorelCorpID_0Corel-Layer"/>
  <g>
   <path class="fil0" d="M3073.79 2021.46l13350.39 -1914.38c600.1,-86.06 969.39,362.06 820.76,995.74l-1582.97 6748.81c-148.64,633.7 -761.16,1222.6 -1361.27,1308.64l-13350.39 1914.38c-600.1,86.06 -969.39,-362.04 -820.76,-995.74l1582.97 -6748.81c148.64,-633.7 761.16,-1222.6 1361.27,-1308.64z"/>
   <path id="_1" class="fil1" d="M16438.04 202.8l-13350.39 1914.38 -27.72 -191.43 13350.39 -1914.38 27.72 191.43zm-27.72 -191.43c52.86,-7.57 101.94,29.14 109.59,81.99 7.65,52.85 -29.01,101.87 -81.87,109.44l-27.72 -191.43zm928.78 1113.64l-188.33 -44.37 0 0 11.52 -54.61 8.73 -53.27 5.98 -51.87 3.32 -50.39 0.75 -48.9 -1.77 -47.29 -4.19 -45.7 -6.54 -44.01 -8.8 -42.31 -10.98 -40.55 -13.11 -38.77 -15.15 -36.99 -17.12 -35.13 -19.05 -33.32 -20.9 -31.44 -22.73 -29.61 -24.52 -27.73 -26.28 -25.85 -28.04 -23.94 -29.81 -22.05 -31.54 -20.07 -33.29 -18.09 -35.05 -16.04 -36.83 -13.94 -38.59 -11.77 -40.35 -9.5 -42.12 -7.16 -43.86 -4.74 -45.6 -2.21 -47.29 0.39 -48.94 3.11 -50.58 5.93 -27.72 -191.43 60.57 -7.1 59.39 -3.78 58.13 -0.5 56.81 2.77 55.42 5.99 53.93 9.18 52.35 12.35 50.68 15.45 48.9 18.51 47.03 21.52 45.02 24.45 42.93 27.35 40.68 30.1 38.38 32.77 35.96 35.37 33.43 37.8 30.86 40.18 28.18 42.39 25.44 44.52 22.66 46.5 19.82 48.38 16.96 50.17 14.05 51.84 11.12 53.4 8.15 54.88 5.16 56.29 2.16 57.61 -0.89 58.85 -3.96 60.02 -7.05 61.11 -10.17 62.15 -13.32 63.1 0 0zm0 0c-12.19,51.97 -64.25,84.17 -116.24,71.92 -51.99,-12.24 -84.28,-64.33 -72.09,-116.3l188.33 44.37zm-1771.3 6704.44l1582.97 -6748.81 188.33 44.37 -1582.97 6748.81 -188.33 -44.37zm188.33 44.37c-12.19,51.97 -64.25,84.17 -116.24,71.92 -51.99,-12.24 -84.28,-64.33 -72.09,-116.3l188.33 44.37zm-1441.58 1382.17l-27.72 -191.43 0 0 51.54 -8.73 51.73 -11.38 51.87 -14.01 51.91 -16.56 51.84 -19.06 51.69 -21.48 51.41 -23.85 51.08 -26.14 50.62 -28.33 50.03 -30.46 49.39 -32.52 48.63 -34.5 47.76 -36.36 46.82 -38.19 45.78 -39.89 44.61 -41.52 43.38 -43.07 42.03 -44.52 40.62 -45.89 39.09 -47.15 37.48 -48.34 35.78 -49.43 34 -50.43 32.12 -51.33 30.18 -52.15 28.12 -52.86 26 -53.47 23.79 -54.03 21.52 -54.44 19.17 -54.77 16.71 -55.02 14.25 -55.22 188.33 44.37 -16.32 63.32 -19.09 62.8 -21.74 62.21 -24.32 61.5 -26.75 60.72 -29.13 59.92 -31.38 58.98 -33.56 58.04 -35.66 56.95 -37.62 55.82 -39.54 54.61 -41.36 53.35 -43.1 51.99 -44.75 50.54 -46.29 49.03 -47.8 47.47 -49.2 45.78 -50.51 44.04 -51.77 42.23 -52.93 40.29 -54.03 38.31 -55.04 36.25 -55.98 34.08 -56.85 31.81 -57.61 29.46 -58.36 27.05 -58.99 24.52 -59.56 21.88 -60.04 19.16 -60.47 16.34 -60.8 13.38 -61.03 10.33 0 0zm0 0c-52.86,7.57 -101.94,-29.14 -109.59,-81.99 -7.65,-52.85 29.01,-101.87 81.87,-109.44l27.72 191.43zm-13378.11 1722.94l13350.39 -1914.38 27.72 191.43 -13350.39 1914.38 -27.72 -191.43zm27.72 191.43c-52.86,7.57 -101.94,-29.14 -109.59,-81.99 -7.65,-52.85 29.01,-101.87 81.87,-109.44l27.72 191.43zm-928.78 -1113.64l188.33 44.37 0 0 -11.52 54.61 -8.73 53.27 -5.98 51.87 -3.32 50.39 -0.75 48.9 1.77 47.3 4.19 45.69 6.54 44.03 8.8 42.31 10.98 40.54 13.11 38.78 15.15 36.97 17.12 35.15 19.05 33.31 20.9 31.45 22.73 29.6 24.52 27.73 26.29 25.85 28.02 23.96 29.79 22.02 31.55 20.08 33.29 18.09 35.05 16.04 36.83 13.94 38.59 11.77 40.35 9.5 42.12 7.16 43.86 4.74 45.6 2.21 47.29 -0.39 48.94 -3.11 50.58 -5.93 27.72 191.43 -60.57 7.1 -59.39 3.78 -58.13 0.5 -56.81 -2.77 -55.42 -5.99 -53.93 -9.18 -52.35 -12.35 -50.68 -15.45 -48.9 -18.51 -47.03 -21.52 -45.02 -24.45 -42.92 -27.33 -40.69 -30.1 -38.4 -32.78 -35.95 -35.37 -33.43 -37.8 -30.86 -40.17 -28.18 -42.41 -25.44 -44.51 -22.66 -46.52 -19.82 -48.37 -16.96 -50.18 -14.05 -51.83 -11.12 -53.4 -8.15 -54.9 -5.16 -56.28 -2.16 -57.62 0.89 -58.85 3.96 -60.02 7.05 -61.11 10.17 -62.15 13.32 -63.1 0 0zm0 0c12.19,-51.97 64.25,-84.17 116.24,-71.92 51.99,12.24 84.28,64.33 72.09,116.3l-188.33 -44.37zm1771.3 -6704.44l-1582.97 6748.81 -188.33 -44.37 1582.97 -6748.81 188.33 44.37zm-188.33 -44.37c12.19,-51.97 64.25,-84.17 116.24,-71.92 51.99,12.24 84.28,64.33 72.09,116.3l-188.33 -44.37zm1441.58 -1382.17l27.72 191.43 0 0 -51.54 8.73 -51.73 11.38 -51.87 14.01 -51.91 16.56 -51.84 19.06 -51.69 21.48 -51.41 23.85 -51.08 26.14 -50.62 28.33 -50.03 30.46 -49.39 32.52 -48.63 34.5 -47.76 36.36 -46.82 38.19 -45.78 39.89 -44.61 41.52 -43.38 43.07 -42.03 44.52 -40.62 45.89 -39.09 47.15 -37.48 48.34 -35.78 49.43 -34 50.43 -32.12 51.33 -30.18 52.15 -28.12 52.86 -26 53.47 -23.79 54.03 -21.52 54.44 -19.17 54.77 -16.71 55.02 -14.25 55.22 -188.33 -44.37 16.32 -63.32 19.09 -62.8 21.74 -62.21 24.32 -61.5 26.75 -60.72 29.13 -59.92 31.38 -58.98 33.56 -58.04 35.66 -56.95 37.62 -55.82 39.54 -54.61 41.36 -53.35 43.1 -51.99 44.75 -50.54 46.29 -49.03 47.8 -47.47 49.2 -45.78 50.51 -44.04 51.77 -42.23 52.93 -40.29 54.03 -38.31 55.04 -36.25 55.98 -34.08 56.85 -31.81 57.61 -29.46 58.36 -27.05 58.99 -24.52 59.56 -21.88 60.04 -19.16 60.47 -16.34 60.8 -13.38 61.03 -10.33 0 0zm0 0c52.86,-7.57 101.94,29.14 109.59,81.99 7.65,52.85 -29.01,101.87 -81.87,109.44l-27.72 -191.43z"/>
  </g>
  <path class="fil2" d="M3825.24 3459.17l22.48 158.25c-54,23.29 -93.77,53.68 -118.83,90.18 -24.59,37 -34.03,79.19 -26.86,126.57 6.22,45.95 24.29,84.32 53.71,115.09 29.89,30.75 74.94,58.18 135.15,81.33 41.26,15.59 134.17,43.42 278.31,83.99 87.21,24.07 155.48,47.19 205.26,69.39 49.32,22.7 97.22,52.49 143.73,89.86 124.28,98.41 197.42,225.79 219.43,382.61 16.74,117.98 2.67,230.31 -41.74,336.53 -44.88,106.21 -114.43,194.92 -209.12,265.18 -50.65,37.03 -107.49,68.85 -170.96,95 -62.98,26.14 -122.67,43.29 -179.52,51.43l-22.02 -156.37c76.27,-30.9 129.78,-65.56 160.05,-104.94 30.28,-39.36 41.59,-88.2 32.99,-146.93 -8.62,-61.61 -43.74,-111.79 -105.4,-150.57 -40.79,-25.06 -115.7,-52.93 -224.72,-83.13 -119.48,-33.47 -201.96,-58.01 -246.54,-73.13 -44.57,-15.1 -88.18,-34.01 -130.86,-57.17 -189.22,-98.33 -298.88,-249.83 -327.58,-454.04 -14.81,-104.24 -6.89,-203.77 23.32,-298.6 30.68,-94.33 80.32,-174.02 149.42,-239.03 96.56,-90.15 223.49,-150.99 380.32,-181.51zm130.5 142.94l-21.05 -151.62c55.45,-3.86 103.79,-3.44 145.97,1.24 41.72,5.16 101.91,17.87 180.6,38.63 19.45,4.7 35.08,6.58 47.39,4.68 17.07,-2.39 29.38,-10.47 35.53,-23.28l24.57 -44.1c11.84,-22.3 28.4,-35.1 49.71,-37.98 24.65,-3.82 44.08,2.79 57.86,18.88 14.22,16.1 23.74,43.58 29.48,81.95l64.1 454.38c3.82,26.53 -0.41,49.77 -13.18,68.73 -12.78,19.43 -30.78,30.83 -54.93,34.19 -18.02,2.39 -36.03,-1.37 -53.57,-10.83 -9,-6.16 -17.08,-14.21 -23.72,-24.14 -6.18,-9.96 -13.78,-27 -21.88,-51.16 -16.16,-43.57 -40.37,-87.14 -71.72,-131.65 -31.81,-44.01 -66.93,-82.84 -104.89,-115.96 -76.85,-64.82 -166.93,-102.15 -270.26,-111.97zm53.32 1660.94l22.01 156.35c-75.34,11 -161.13,1.15 -257.85,-29.52 -36.03,-10.84 -60.67,-17.93 -74.43,-20.76 -13.26,-2.82 -26.06,-3.28 -37.91,-1.37 -18.48,2.39 -31.73,7.62 -40.25,14.74 -8.05,7.59 -20.35,24.66 -37.37,51.7 -13.24,22.77 -29.82,35.59 -49.24,38.45 -51.16,7.18 -82.49,-28.8 -93.49,-107.93l-71.26 -499.88c-3.35,-26.05 0.89,-49.28 12.7,-69.67 12.31,-19.92 29.35,-32.27 51.15,-36.09 19.89,-3.82 36.47,-0.53 49.77,10.36 13.28,10.89 26.1,31.25 38.47,61.08 32.32,76.27 73.64,145.87 123.01,208.83 49.85,63.43 104.42,115.02 164.17,155.23 61.18,41.62 128.04,64.75 200.55,68.45z"/>
  <path id="_1_0" class="fil2" d="M5802.16 3216.53l229.54 1615.2c4.8,35.55 15.26,60.65 31.38,73.9 8.55,8.04 16.14,12.77 23.24,14.18 6.64,1.42 28.44,4.23 65.42,8.45 45.48,3.73 71.09,25.96 76.84,66.24 3.35,23.69 -5.62,44.55 -27.4,62.59 -16.09,13.29 -44.51,23.29 -85.74,29.03l-45.48 6.21 -614.04 87.51 -45.02 6.21c-39.81,5.75 -71.08,3.9 -93.36,-5.56 -22.28,-9.45 -35.1,-26.49 -38.44,-51.59 -5.75,-40.29 12.7,-68.26 54.86,-84.9 34.1,-13.79 53.99,-22.82 60.14,-25.67 6.17,-3.33 11.84,-9.97 16.57,-19.93 11.36,-17.55 14.62,-44.1 9.83,-80.1l-229.54 -1615.21 611.21 -86.56zm474.75 -67.43l79.86 562.41c3.85,26.53 -0.89,48.81 -13.65,67.31 -12.77,18.51 -30.76,29.42 -54.44,32.77 -23.22,3.35 -43.14,-1.37 -60.21,-14.62 -17.55,-12.77 -30.37,-32.19 -38.47,-58.23l-25.69 -81.48c-25.7,-83.36 -62.75,-152.98 -111.17,-209.79 -29.9,-35.04 -67.86,-61.51 -113.36,-80.42l-23.91 -166.78 361.03 -51.16zm-1557.88 220.93l361.03 -51.18 23.91 166.8c-39.77,30.84 -68.63,66.9 -87.04,108.63 -30.25,67.8 -46.25,145.54 -48.05,232.26l-1.77 85.78c-0.93,27 -8.01,49.28 -20.78,66.36 -12.77,17.55 -30.78,27.53 -53.97,30.87 -23.69,3.35 -44.1,-1.83 -61.63,-16.03 -17.55,-14.19 -28.01,-34.57 -31.84,-61.09l-79.86 -562.41z"/>
  <path id="_2" class="fil2" d="M7198.15 3018.6l229.55 1615.2c4.79,35.55 15.24,60.18 31.38,73.9 8.53,8.04 16.13,12.77 23.22,14.18 6.65,1.42 28.45,4.23 65.41,8.45 45.51,3.73 71.12,25.49 76.86,65.77 3.35,24.16 -5.63,45.02 -27.4,63.06 -16.1,13.29 -44.04,22.81 -84.32,28.55l-46.9 6.69 -614.07 87.03 -35.53 5.27c-32.68,4.77 -58.76,1.96 -78.2,-7.97 -19.43,-9.92 -30.83,-26.02 -34.18,-49.23 -5.26,-37.43 9.39,-64.46 43.97,-81.58 28.42,-14.25 45.46,-23.26 50.2,-26.11 4.73,-2.85 9,-9.02 13.25,-18.04 8.98,-16.11 10.84,-40.29 6.54,-72.51l-195.12 -1375.46c-4.79,-32.23 -13.33,-54.95 -26.63,-67.75 -6.64,-7.57 -12.34,-12.3 -17.55,-13.71 -5.68,-1.41 -24.18,-5.17 -55.45,-11.3 -37.93,-6.6 -59.77,-28.84 -65.01,-66.74 -3.36,-22.74 2.78,-41.7 18.87,-56.42 16.1,-15.17 40.25,-24.69 72.95,-29.48l35.53 -5.26 612.63 -86.56zm556.09 897.79c86.25,0.83 153.56,5.48 200.95,14.9 47.89,8.95 91.98,24.05 132.76,45.33 42.68,23.15 76.84,52.98 102.95,89.44 26.58,35.98 42.75,76.23 48.98,120.31l40.17 284.28c4.29,28.89 15.69,42.16 35.12,39.28 7.11,-0.95 12.79,-3.8 17.52,-8.55 4.26,-4.74 10.4,-13.75 17.5,-27.04 18.42,-34.14 39.74,-53.11 63.43,-56.46 15.15,-2.39 31.76,3.75 49.78,17.94 17.54,14.66 27.98,29.81 29.9,46.39 4.3,28.42 -4.16,64.93 -25.44,109.51 -21.27,44.57 -50.13,85.84 -85.62,123.79 -33.6,35.59 -71,63.13 -113.16,82.62 -42.16,19.48 -93.31,33.28 -152.54,41.9 -121.3,17.22 -220.38,-3.98 -298.17,-63.58 -77.79,-59.61 -125.3,-151.01 -142.99,-274.68l-32.53 -230.74c-7.18,-51.18 -11.94,-81.03 -13.85,-89.09 -10,-36 -27.1,-65.84 -51.77,-89.02 -31.31,-28.4 -71.62,-42.09 -121.84,-40.6l-21.04 -146.88c48.31,-14.27 81.94,-31.85 99.92,-53.21 16.09,-18.98 26,-39.82 29.77,-61.63 4.25,-22.28 3.25,-54.03 -2.96,-94.77l-51.66 -365.31c-8.12,-57.8 -25.7,-99.49 -51.81,-124.58 -26.56,-25.08 -70.18,-42.08 -131.32,-50.06l-21.54 -152.56 35.53 -5.26c101.88,-14.34 189.07,-23 261.56,-25.45 108.04,-5.35 208.07,16.32 299.59,64.05 132.31,68.08 209.69,181.24 232.16,339.01 18.19,129.35 -6.79,240.74 -75.87,334.67 -29.32,39.84 -64.83,74 -106.96,102.02 -42.13,28.49 -107.96,63.17 -196.53,104.04z"/>
  <path id="_3" class="fil2" d="M9154.26 2855.03c-44.51,22.79 -74.33,50.33 -89.45,81.15 -15.6,31.3 -19.34,74.43 -11.2,129.4l174.07 1228.59c11.48,80.54 30.51,135.95 57.08,165.79 21.36,25.08 55.98,40.19 103.36,45.35l21.52 151.15c-205.65,12.59 -386.75,-39.79 -543.77,-157.11 -203.48,-152.33 -327.96,-387.22 -373.37,-705.14 -22.49,-159.69 -19.36,-307.06 9.38,-442.64 29.2,-135.58 83.54,-254.59 163.02,-357.52 61.04,-78.74 129.67,-141.86 205.91,-188.89 76.71,-47.48 163.86,-80.29 261.93,-98.9l21.51 148.77zm113.72 -16.27l-21.51 -148.77c99.49,-9.6 192.86,-2.14 279.61,21.92 86.77,24.05 170.23,65.65 250.38,124.31 212.51,156.1 341.71,396.21 387.63,720.77 45.44,317.92 -8.74,578.16 -161.54,781.19 -117.8,157.02 -277.37,257.68 -479.19,302.5l-21.54 -151.15c22.74,-9.05 40.26,-18.53 52.1,-29.45 11.83,-10.44 22.24,-24.68 30.75,-42.7 19.38,-40.78 23.56,-99.55 12.57,-175.34l-174.09 -1228.59c-7.18,-48.8 -20.5,-86.23 -40.91,-112.26 -13.75,-18 -28.94,-31.25 -45.53,-40.24 -16.13,-8.51 -39.35,-16.06 -68.74,-22.19z"/>
  <path id="_4" class="fil2" d="M10977.3 2482.24l911.38 1166.98 86.09 605.52 -375.27 53.57 -1160.56 -1476.12c-25.16,-32.19 -44.62,-53.97 -59.79,-65.78 -14.72,-11.84 -32.26,-19.88 -53.58,-23.17l-54.98 -12.24c-14.22,-2.37 -26.56,-8.98 -36.52,-19.86 -9.97,-10.89 -15.67,-23.2 -18.06,-37.9 -1.92,-15.62 -0.03,-30.79 6.58,-45.02 6.14,-14.7 15.6,-25.6 28.85,-33.21 14.22,-8.55 55.91,-17.61 124.13,-27.17l601.73 -85.6zm-504.91 565.07l179.42 221.07 104.25 736.3c9.09,63.96 27.17,115.11 54.69,153.46 27.07,37.88 65.96,67.22 116.23,87.06l44.1 17.47c25.6,10.4 40.31,29.34 44.14,56.82 2.88,21.31 -3.26,39.79 -18.41,55.94 -12.77,13.75 -41.66,24.22 -87.15,30.44l-316.51 44.95c-83.38,11.95 -128.43,-6 -135.12,-53.85 -2.39,-16.11 -0.03,-29.86 7.52,-40.76 7.11,-10.91 24.15,-26.58 51.12,-47.47 80.96,-60.75 112.59,-155.57 94.42,-283.49l-138.69 -977.94zm1385.22 382.06l-179.91 -225.35 -54.03 -380.47c-11.01,-77.22 -30.51,-134.54 -58.99,-172.41 -28.48,-37.4 -73.06,-67.19 -134.22,-88.45 -20.86,-6.13 -35.55,-14.16 -44.58,-23.62 -9.02,-9.47 -14.25,-22.74 -16.63,-39.31 -3.83,-24.65 1.84,-44.08 16.5,-57.84 14.68,-13.76 39.78,-23.28 76.25,-28.53l342.57 -48.3c46.45,-6.69 77.71,-3.42 94.32,8.88 17.55,12.77 28,28.87 30.86,49.24 2.41,19.43 0.06,34.12 -7.03,45.04 -7.11,10.9 -26.05,27.04 -56.82,48.41 -44.5,31.33 -75.71,74.5 -92.71,129.49 -12.27,40.29 -13.62,92.44 -4.54,156.85l88.95 626.38z"/>
  <path id="_5" class="fil2" d="M12799.9 2185.79l21.99 153.03c-77.19,30.43 -107.43,100.61 -92.13,209.59l181.25 1279.28c7.18,49.75 19.53,86.7 37.11,111.32 15.19,19.88 43.17,35.48 83.93,45.38l22.01 155.4c-29.38,3.83 -56.39,5.77 -81.51,4.38 -24.63,-0.93 -58.29,-5.62 -100.47,-13.61 -100.97,-19.31 -195.33,-57.57 -282.6,-114.33 -87.75,-56.75 -163.19,-128.68 -227.27,-215.8 -98.74,-136.82 -162.47,-305.45 -191.17,-507.29 -27.26,-195.21 -17.54,-373.41 30.58,-534.12 48.13,-161.18 130.9,-293.96 248.29,-398.86 68.16,-60.73 143.45,-108.23 225.86,-142.45 34.58,-14.26 75.8,-24.73 124.13,-31.91zm135.23 133.93l-21.05 -148.3c151.65,-7.79 278.18,2.02 380.58,29.36 29.88,8.98 53.1,12.25 68.74,9.88 14.68,-1.92 25.09,-7.14 32.19,-15.21 6.64,-7.59 19.88,-29.41 39.25,-64.5 13.24,-25.13 32.19,-39.38 56.82,-43.2 26.05,-3.36 45.02,0.89 57.35,13.67 12.81,12.78 21.37,35.52 26.17,68.67l76.03 535.41c9.56,68.7 -11.23,106.64 -62.41,113.82 -26.06,3.82 -45.98,-0.43 -60.21,-12.24 -14.22,-11.84 -29.89,-37.41 -46.53,-76.25 -20.91,-49.24 -54.16,-105.13 -99.74,-168.58 -45.58,-62.96 -87.35,-111.72 -126.24,-146.74 -44.12,-40.22 -91.07,-67.65 -140.85,-82.74 -49.79,-14.63 -109.98,-19.3 -180.1,-13.04zm840.19 1445.25c-31.7,41.76 -75.26,86.35 -130.64,132.85 -55.85,46.99 -108.88,84.98 -160.02,114.9 -46.88,26.11 -99.46,49.41 -157.72,69.86 -58.73,20.44 -110.85,34.26 -156.81,40.49l-21.99 -155.43c26.06,-9.97 44.52,-20.42 56.82,-31.8 11.84,-10.93 21.3,-25.16 27.91,-43.18 11.8,-30.33 14.12,-67.78 7.91,-111.84l-56.92 -402.25c-5.26,-35.53 -15.71,-60.64 -31.37,-74.36 -7.59,-8.05 -14.72,-12.78 -21.34,-14.21 -6.64,-1.4 -28.44,-3.75 -64.94,-7.01 -45.49,-4.69 -70.64,-27.4 -76.38,-67.66 -3.35,-24.18 4.22,-43.61 22.67,-59.74 18.45,-15.67 47.83,-26.14 88.11,-31.88l45.01 -6.21 503.65 -71.73c40.75,-5.74 70.61,-3.89 89.1,5.09 18.02,8.98 29.42,27.93 33.24,56.36 2.88,17.52 1.47,32.21 -3.72,44.55 -5.2,12.31 -16.09,26.56 -32.19,41.73 -16.09,15.67 -26.02,28.94 -28.85,40.8 -2.82,11.37 -2.32,32.21 1.98,61.61l66.49 469.06z"/>
  <path id="_6" class="fil2" d="M4041.43 6869.51l229.55 1615.21c4.79,35.55 15.24,60.17 31.38,73.89 8.52,8.05 16.13,12.78 23.22,14.19 6.64,1.41 28.45,4.23 65.41,8.45 45.49,3.72 71.12,25.49 76.86,65.76 3.35,24.18 -5.63,45.04 -27.4,63.07 -16.1,13.29 -44.04,22.79 -84.32,28.53l-46.92 6.69 -614.06 87.04 -35.53 5.27c-32.68,4.77 -58.76,1.96 -78.2,-7.97 -19.45,-9.93 -30.83,-26.02 -34.18,-49.23 -5.26,-37.44 9.39,-64.47 43.97,-81.58 28.42,-14.25 45.46,-23.26 50.2,-26.11 4.73,-2.86 9,-9.02 13.25,-18.04 8.98,-16.13 10.84,-40.29 6.54,-72.51l-195.12 -1375.48c-4.79,-32.21 -13.35,-54.95 -26.63,-67.73 -6.65,-7.57 -12.34,-12.3 -17.55,-13.71 -5.68,-1.42 -24.18,-5.19 -55.45,-11.3 -37.93,-6.6 -59.77,-28.84 -65.02,-66.74 -3.35,-22.74 2.79,-41.7 18.88,-56.42 16.09,-15.19 40.25,-24.7 72.95,-29.48l35.53 -5.27 612.63 -86.56zm556.09 897.79c86.24,0.84 153.56,5.49 200.95,14.9 47.89,8.96 91.97,24.07 132.76,45.34 42.67,23.15 76.84,52.98 102.95,89.44 26.58,35.96 42.74,76.23 48.96,120.31l40.18 284.27c4.29,28.89 15.69,42.16 35.12,39.3 7.1,-0.95 12.78,-3.82 17.52,-8.55 4.25,-4.76 10.39,-13.76 17.5,-27.04 18.42,-34.15 39.74,-53.13 63.43,-56.47 15.15,-2.38 31.76,3.76 49.78,17.95 17.54,14.66 27.98,29.81 29.9,46.39 4.3,28.42 -4.18,64.93 -25.44,109.51 -21.27,44.57 -50.14,85.84 -85.62,123.79 -33.6,35.59 -71,63.11 -113.16,82.6 -42.16,19.48 -93.32,33.29 -152.55,41.9 -121.29,17.22 -220.37,-3.97 -298.16,-63.58 -77.79,-59.61 -125.3,-151.01 -143.01,-274.67l-32.52 -230.75c-7.18,-51.16 -11.94,-81.01 -13.85,-89.08 -10,-36 -27.1,-65.84 -51.77,-89.02 -31.31,-28.4 -71.62,-42.09 -121.84,-40.6l-21.05 -146.88c48.33,-14.27 81.95,-31.85 99.93,-53.21 16.09,-18.98 26,-39.84 29.77,-61.65 4.25,-22.28 3.25,-54.01 -2.96,-94.76l-51.66 -365.32c-8.12,-57.8 -25.7,-99.48 -51.81,-124.57 -26.56,-25.08 -70.18,-42.08 -131.32,-50.06l-21.54 -152.56 35.53 -5.27c101.88,-14.33 189.07,-22.99 261.56,-25.45 108.04,-5.35 208.07,16.32 299.58,64.07 132.31,68.07 209.7,181.24 232.18,339.01 18.19,129.35 -6.79,240.74 -75.87,334.67 -29.32,39.84 -64.83,74 -106.97,102.02 -42.12,28.48 -107.96,63.17 -196.52,104.03z"/>
  <path id="_7" class="fil2" d="M6009.72 6590.3l266.37 1876.28 -612.65 86.56 -35.53 5.26c-32.67,4.79 -58.76,1.96 -78.19,-7.95 -19.45,-9.93 -30.84,-26.03 -34.19,-49.24 -5.26,-37.43 9.39,-64.46 43.97,-81.57 28.42,-14.25 45.48,-23.28 50.2,-26.13 4.74,-2.85 9,-9.02 13.25,-18.02 8.98,-16.13 10.84,-40.29 6.54,-72.52l-195.12 -1375.46c-4.77,-32.23 -13.33,-54.95 -26.63,-67.73 -6.64,-7.57 -12.32,-12.31 -17.54,-13.72 -5.7,-1.41 -24.18,-5.17 -55.47,-11.3 -37.93,-6.58 -59.77,-28.84 -65.01,-66.74 -3.36,-22.74 2.78,-41.7 18.87,-56.42 16.1,-15.17 40.26,-24.69 72.95,-29.48l35.53 -5.26 612.65 -86.56zm119.38 -17.22l554.36 -78.43 69.34 487.54c4.32,28.44 1.49,49.77 -7.48,63.99 -9.47,14.23 -26.05,23.25 -49.74,26.6 -20.36,2.88 -35.53,1 -45.98,-6.09 -9.96,-7.1 -21.36,-22.73 -33.22,-47.36 -49.89,-101.34 -112.55,-175.18 -187.95,-221.54 -75.41,-46.34 -167.38,-67.54 -276.37,-63.61l-22.96 -161.1zm136.37 1002.12l-22.48 -159.2c49.71,-33.25 84.73,-66.46 106.49,-100.6 21.29,-33.68 34.03,-76.35 39.16,-128.48 2.34,-35.55 8.45,-61.15 18.4,-75.84 9.93,-15.19 26.03,-24.21 47.83,-27.08 29.38,-4.3 51.18,4.2 65.42,25.51 8.08,10.89 15.21,37.41 20.96,79.12l74.61 523.56c6.21,43.11 5.3,73.92 -1.78,91.94 -7.08,18.01 -23.65,28.94 -49.24,32.77 -21.33,2.86 -38.38,-1.38 -52.15,-12.27 -13.76,-11.34 -26.58,-31.7 -37.98,-61.08 -24.73,-61.09 -53.68,-106.56 -87.37,-136.37 -33.69,-30.29 -74.47,-47.29 -121.86,-51.97zm132.87 873.69l-21.05 -147.83c58.27,-17.62 105.63,-37.58 142.11,-59.42 36.92,-21.85 72.44,-52.7 106.96,-92.08 34.55,-39.38 61.05,-78.74 79.01,-118.57 18.42,-39.35 34,-90.09 46.24,-152.66 6.13,-30.33 13.67,-52.15 23.14,-64.01 9.46,-11.85 24.15,-19.45 43.1,-22.32 25.57,-3.35 44.55,1.37 56.88,15.1 12.34,13.72 20.9,39.3 26.17,76.72l68.85 484.23 -571.4 80.83z"/>
  <path id="_8" class="fil2" d="M7662.18 6318.03l23.91 166.31c-53.53,16.18 -90.46,45.62 -111.72,89.24 -21.27,43.14 -26.42,101.44 -16.36,174.89l161.15 1134.77 8.15 59.23c3.35,20.84 10.94,42.64 22.82,64.9 11.88,21.78 26.11,40.25 42.26,54.91 17.55,16.1 35.1,26.97 52.64,32.16 18.01,5.67 41.23,7.52 70.14,6.07l23.9 167.72c-178.14,25.34 -338.82,0.93 -483.46,-72.84 -127.09,-65.23 -229.58,-162.25 -307.93,-291.99 -78.36,-129.27 -130.7,-288.43 -157.47,-477.01 -19.61,-138.34 -18.82,-269.62 2.34,-394.76 21.16,-124.67 61.77,-236.55 121.36,-334.73 61.01,-99.12 138.61,-183.09 233.3,-251.46 94.69,-68.36 188.94,-109.71 283.7,-123.1l31.27 -4.32zm131.94 152.44l-23.43 -166.31c45.98,0.89 83.41,3.68 112.33,7.91 29.39,4.22 82.48,14.59 159.26,31.07 49.31,9.89 81.52,13.65 97.17,11.73 26.53,-3.83 44.99,-18.55 55.4,-44.62l13.22 -35.56c7.55,-23.69 26.49,-37.94 56.81,-42.26 24.63,-3.33 45.02,1.37 60.21,14.15 15.17,12.77 25.16,33.13 28.98,61.56l81.3 572.84c5.26,36.96 1.02,64.93 -13.15,83.9 -14.21,18.96 -31.72,29.89 -53.03,32.77 -21.8,3.33 -40.29,-1.37 -55.94,-13.68 -15.19,-12.31 -28.96,-34.1 -41.8,-64.87 -29.95,-70.09 -56.54,-124.55 -80.76,-162.92 -51.76,-81.91 -106.82,-146.28 -164.69,-193.6 -39.38,-31.7 -76.85,-55.35 -113.82,-69.99 -36.52,-15.12 -75.87,-22.66 -118.04,-22.12zm255.83 1781.98l-23.9 -167.25c71.05,-15.73 142.56,-53.74 214.53,-113.54 38.33,-32.27 70.98,-73.06 97.46,-122.38 26.94,-49.32 44.9,-101.47 53.82,-156.92 5.17,-30.82 12.73,-53.1 23.61,-67.33 10.4,-14.23 26.05,-22.78 45.94,-25.64 22.27,-2.88 41.7,2.79 58.78,16.97 17.08,14.69 27.05,34.1 30.89,58.73 5.73,41.22 -3.21,93.85 -26.34,156.89 -23.14,63.06 -56.24,122.81 -98.83,179.27 -52.03,69.26 -107.87,122.87 -167.54,161.33 -59.67,38.47 -129.28,65.09 -208.42,79.88z"/>
  <path id="_9" class="fil2" d="M9575.03 7998.33l-614.06 87.04 -35.53 5.26c-32.68,4.79 -58.76,1.96 -78.2,-7.95 -19.45,-9.93 -30.84,-26.03 -34.19,-49.23 -5.24,-37.44 9.41,-64.47 43.98,-81.58 28.41,-14.25 45.46,-23.28 50.18,-26.13 4.74,-2.85 9,-9.02 13.26,-18.02 8.96,-16.13 10.83,-40.29 6.53,-72.52l-195.12 -1375.46c-4.77,-32.23 -13.33,-54.95 -26.61,-67.73 -6.65,-7.57 -12.34,-12.31 -17.55,-13.72 -5.7,-1.41 -24.18,-5.17 -55.47,-11.3 -37.93,-6.58 -59.75,-28.84 -65.01,-66.72 -3.35,-22.75 2.79,-41.72 18.88,-56.43 16.09,-15.17 40.25,-24.69 72.95,-29.46l35.53 -5.27 614.04 -87.04 36.02 -4.79c32.68,-4.77 58.76,-1.96 78.2,7.48 19.43,9.93 30.83,26.5 34.19,49.72 5.24,37.43 -9.41,64.93 -44.44,82.04 -28.42,14.26 -45.01,22.79 -49.74,26.13 -4.73,2.85 -8.99,9 -13.24,18.02 -8.99,16.13 -11.33,40.29 -6.54,72.52l195.11 1375.46c4.32,32.21 13.35,54.48 26.17,67.73 6.63,7.57 12.79,11.83 18.02,13.72 5.21,1.41 23.71,5.19 54.98,10.82 38.38,7.07 60.22,28.84 65.48,66.74 3.35,22.74 -3.26,41.72 -19.35,56.42 -15.63,14.72 -40.25,24.69 -72.95,29.48l-35.53 4.79z"/>
  <path id="_10" class="fil2" d="M10423.45 5964.18l229.54 1615.21c4.8,35.55 15.24,60.17 31.38,73.89 8.53,8.04 16.14,12.78 23.24,14.19 6.64,1.41 28.44,4.23 65.41,8.44 45.49,3.73 71.11,25.51 76.85,65.77 3.35,24.16 -5.62,45.04 -27.4,63.07 -16.09,13.29 -44.04,22.79 -84.3,28.53l-46.92 6.69 -614.06 87.04 -35.53 5.27c-32.68,4.77 -58.76,1.96 -78.2,-7.97 -19.45,-9.93 -30.83,-26.03 -34.19,-49.23 -5.24,-37.44 9.41,-64.47 43.98,-81.58 28.41,-14.25 45.46,-23.28 50.18,-26.13 4.74,-2.85 9,-9 13.26,-18.02 8.98,-16.13 10.83,-40.29 6.53,-72.51l-195.11 -1375.48c-4.79,-32.21 -13.35,-54.95 -26.63,-67.73 -6.65,-7.57 -12.34,-12.31 -17.55,-13.72 -5.7,-1.41 -24.18,-5.17 -55.47,-11.3 -37.93,-6.58 -59.75,-28.83 -65.01,-66.72 -3.35,-22.75 2.79,-41.7 18.88,-56.42 16.09,-15.19 40.25,-24.7 72.95,-29.48l35.53 -5.27 612.63 -86.56zm281.07 1141.25l-21.05 -146.88c38.37,-14.74 64.41,-28.52 79.09,-40.86 14.68,-12.35 26.03,-29.9 34.99,-52.66 14.18,-38.4 16.96,-87.69 8.34,-148.33l-62.64 -440.65c-5.74,-43.11 -13.83,-74.37 -22.86,-94.73 -9.5,-20.37 -25.16,-37.41 -46.99,-52.08 -29.88,-22.24 -68.29,-33.09 -113.78,-33.03l-21.04 -148.29c188.57,-26.78 330.27,-28.87 424.61,-5.77 109.49,26.39 200.56,78.41 272.68,155.08 74.03,78.09 119.67,180.88 137.83,307.38 20.08,141.19 5.08,261.1 -44.1,359.73 -49.61,97.69 -127.25,175.51 -232.84,233.47 -87.61,47.03 -218.36,82.74 -392.24,107.61z"/>
  <path id="_11" class="fil2" d="M12214.38 5710.14l266.37 1876.28 -612.65 86.56 -35.53 5.26c-32.67,4.77 -58.76,1.96 -78.19,-7.95 -19.45,-9.93 -30.84,-26.03 -34.19,-49.24 -5.26,-37.43 9.39,-64.46 43.97,-81.58 28.42,-14.23 45.48,-23.26 50.2,-26.11 4.74,-2.85 9,-9.02 13.26,-18.04 8.96,-16.11 10.83,-40.28 6.53,-72.51l-195.12 -1375.46c-4.77,-32.23 -13.33,-54.95 -26.63,-67.73 -6.64,-7.57 -12.32,-12.31 -17.54,-13.72 -5.7,-1.41 -24.18,-5.17 -55.47,-11.3 -37.93,-6.6 -59.77,-28.84 -65.01,-66.74 -3.35,-22.74 2.78,-41.7 18.87,-56.42 16.1,-15.17 40.26,-24.69 72.95,-29.48l35.53 -5.26 612.65 -86.56zm119.38 -17.22l554.36 -78.43 69.35 487.54c4.3,28.44 1.48,49.77 -7.5,63.99 -9.46,14.22 -26.05,23.25 -49.74,26.6 -20.36,2.88 -35.53,1 -45.96,-6.09 -9.97,-7.1 -21.36,-22.73 -33.24,-47.36 -49.89,-101.34 -112.55,-175.19 -187.95,-221.54 -75.41,-46.35 -167.38,-67.54 -276.36,-63.63l-22.97 -161.08zm136.37 1002.12l-22.48 -159.2c49.71,-33.25 84.73,-66.46 106.49,-100.61 21.29,-33.67 34.03,-76.34 39.16,-128.47 2.34,-35.55 8.45,-61.15 18.4,-75.84 9.93,-15.19 26.03,-24.21 47.83,-27.08 29.38,-4.3 51.18,4.2 65.42,25.49 8.08,10.9 15.21,37.43 20.96,79.12l74.61 523.57c6.21,43.11 5.3,73.92 -1.78,91.94 -7.08,18.01 -23.65,28.94 -49.24,32.75 -21.33,2.88 -38.38,-1.37 -52.13,-12.25 -13.78,-11.34 -26.6,-31.72 -38,-61.08 -24.73,-61.11 -53.68,-106.56 -87.37,-136.37 -33.69,-30.29 -74.47,-47.29 -121.86,-51.97zm132.87 873.69l-21.05 -147.85c58.27,-17.61 105.65,-37.57 142.11,-59.41 36.92,-21.85 72.44,-52.7 106.97,-92.08 34.54,-39.38 61.04,-78.76 78.99,-118.57 18.42,-39.36 34,-90.09 46.24,-152.66 6.13,-30.33 13.67,-52.16 23.14,-64.01 9.46,-11.85 24.15,-19.45 43.1,-22.32 25.57,-3.35 44.55,1.37 56.88,15.09 12.34,13.73 20.9,39.3 26.17,76.74l68.85 484.23 -571.4 80.83z"/>
  <path id="_12" class="fil2" d="M13741.76 5455.56l22.48 158.25c-54,23.29 -93.77,53.68 -118.83,90.18 -24.59,37.01 -34.01,79.2 -26.85,126.57 6.21,45.96 24.27,84.33 53.69,115.09 29.9,30.75 74.94,58.19 135.16,81.33 41.26,15.59 134.17,43.43 278.29,83.99 87.22,24.07 155.5,47.19 205.28,69.41 49.31,22.68 97.21,52.48 143.71,89.86 124.29,98.4 197.42,225.79 219.44,382.61 16.74,117.97 2.66,230.31 -41.74,336.53 -44.9,106.21 -114.44,194.9 -209.12,265.17 -50.67,37.03 -107.49,68.85 -170.96,95 -62.99,26.14 -122.69,43.29 -179.54,51.43l-22.01 -156.37c76.27,-30.9 129.77,-65.56 160.05,-104.94 30.28,-39.36 41.58,-88.19 32.97,-146.93 -8.6,-61.61 -43.74,-111.79 -105.4,-150.57 -40.79,-25.06 -115.69,-52.93 -224.72,-83.11 -119.48,-33.49 -201.96,-58.02 -246.52,-73.13 -44.58,-15.12 -88.19,-34.01 -130.88,-57.18 -189.22,-98.33 -298.88,-249.83 -327.58,-454.04 -14.81,-104.24 -6.89,-203.77 23.32,-298.58 30.68,-94.35 80.32,-174.03 149.44,-239.04 96.55,-90.15 223.49,-150.99 380.3,-181.51zm130.5 142.94l-21.05 -151.62c55.45,-3.85 103.79,-3.44 145.98,1.24 41.7,5.16 101.9,17.87 180.59,38.63 19.45,4.7 35.08,6.58 47.4,4.68 17.07,-2.39 29.38,-10.47 35.52,-23.26l24.58 -44.1c11.83,-22.31 28.4,-35.12 49.71,-37.98 24.65,-3.82 44.08,2.78 57.84,18.88 14.23,16.09 23.74,43.57 29.48,81.94l64.1 454.38c3.82,26.53 -0.41,49.77 -13.18,68.73 -12.77,19.45 -30.76,30.84 -54.93,34.19 -18.01,2.39 -36.02,-1.37 -53.57,-10.83 -9,-6.16 -17.07,-14.19 -23.72,-24.14 -6.18,-9.94 -13.78,-26.99 -21.87,-51.16 -16.16,-43.57 -40.39,-87.14 -71.73,-131.65 -31.8,-44.01 -66.93,-82.82 -104.87,-115.96 -76.85,-64.82 -166.95,-102.15 -270.27,-111.97zm53.32 1660.94l22.01 156.37c-75.34,11 -161.11,1.15 -257.84,-29.53 -36.03,-10.84 -60.68,-17.93 -74.43,-20.75 -13.26,-2.84 -26.06,-3.29 -37.91,-1.37 -18.48,2.38 -31.74,7.61 -40.26,14.73 -8.04,7.59 -20.35,24.66 -37.36,51.72 -13.25,22.75 -29.82,35.58 -49.24,38.44 -51.18,7.18 -82.51,-28.8 -93.5,-107.93l-71.26 -499.88c-3.35,-26.05 0.89,-49.28 12.71,-69.66 12.3,-19.93 29.34,-32.28 51.14,-36.1 19.89,-3.8 36.49,-0.51 49.78,10.36 13.28,10.89 26.1,31.26 38.47,61.09 32.31,76.25 73.63,145.86 122.99,208.82 49.85,63.45 104.42,115.02 164.17,155.25 61.19,41.61 128.04,64.75 200.55,68.44z"/>
  <path id="_13" class="fil3 str0" d="M3825.24 3459.17l22.48 158.25c-54,23.29 -93.77,53.68 -118.83,90.18 -24.59,37 -34.03,79.19 -26.86,126.57 6.22,45.95 24.29,84.32 53.71,115.09 29.89,30.75 74.94,58.18 135.15,81.33 41.26,15.59 134.17,43.42 278.31,83.99 87.21,24.07 155.48,47.19 205.26,69.39 49.32,22.7 97.22,52.49 143.73,89.86 124.28,98.41 197.42,225.79 219.43,382.61 16.74,117.98 2.67,230.31 -41.74,336.53 -44.88,106.21 -114.43,194.92 -209.12,265.18 -50.65,37.03 -107.49,68.85 -170.96,95 -62.98,26.14 -122.67,43.29 -179.52,51.43l-22.02 -156.37c76.27,-30.9 129.78,-65.56 160.05,-104.94 30.28,-39.36 41.59,-88.2 32.99,-146.93 -8.62,-61.61 -43.74,-111.79 -105.4,-150.57 -40.79,-25.06 -115.7,-52.93 -224.72,-83.13 -119.48,-33.47 -201.96,-58.01 -246.54,-73.13 -44.57,-15.1 -88.18,-34.01 -130.86,-57.17 -189.22,-98.33 -298.88,-249.83 -327.58,-454.04 -14.81,-104.24 -6.89,-203.77 23.32,-298.6 30.68,-94.33 80.32,-174.02 149.42,-239.03 96.56,-90.15 223.49,-150.99 380.32,-181.51zm130.5 142.94l-21.05 -151.62c55.45,-3.86 103.79,-3.44 145.97,1.24 41.72,5.16 101.91,17.87 180.6,38.63 19.45,4.7 35.08,6.58 47.39,4.68 17.07,-2.39 29.38,-10.47 35.53,-23.28l24.57 -44.1c11.84,-22.3 28.4,-35.1 49.71,-37.98 24.65,-3.82 44.08,2.79 57.86,18.88 14.22,16.1 23.74,43.58 29.48,81.95l64.1 454.38c3.82,26.53 -0.41,49.77 -13.18,68.73 -12.78,19.43 -30.78,30.83 -54.93,34.19 -18.02,2.39 -36.03,-1.37 -53.57,-10.83 -9,-6.16 -17.08,-14.21 -23.72,-24.14 -6.18,-9.96 -13.78,-27 -21.88,-51.16 -16.16,-43.57 -40.37,-87.14 -71.72,-131.65 -31.81,-44.01 -66.93,-82.84 -104.89,-115.96 -76.85,-64.82 -166.93,-102.15 -270.26,-111.97zm53.32 1660.94l22.01 156.35c-75.34,11 -161.13,1.15 -257.85,-29.52 -36.03,-10.84 -60.67,-17.93 -74.43,-20.76 -13.26,-2.82 -26.06,-3.28 -37.91,-1.37 -18.48,2.39 -31.73,7.62 -40.25,14.74 -8.05,7.59 -20.35,24.66 -37.37,51.7 -13.24,22.77 -29.82,35.59 -49.24,38.45 -51.16,7.18 -82.49,-28.8 -93.49,-107.93l-71.26 -499.88c-3.35,-26.05 0.89,-49.28 12.7,-69.67 12.31,-19.92 29.35,-32.27 51.15,-36.09 19.89,-3.82 36.47,-0.53 49.77,10.36 13.28,10.89 26.1,31.25 38.47,61.08 32.32,76.27 73.64,145.87 123.01,208.83 49.85,63.43 104.42,115.02 164.17,155.23 61.18,41.62 128.04,64.75 200.55,68.45z"/>
  <path id="_14" class="fil3 str0" d="M5802.16 3216.53l229.54 1615.2c4.8,35.55 15.26,60.65 31.38,73.9 8.55,8.04 16.14,12.77 23.24,14.18 6.64,1.42 28.44,4.23 65.42,8.45 45.48,3.73 71.09,25.96 76.84,66.24 3.35,23.69 -5.62,44.55 -27.4,62.59 -16.09,13.29 -44.51,23.29 -85.74,29.03l-45.48 6.21 -614.04 87.51 -45.02 6.21c-39.81,5.75 -71.08,3.9 -93.36,-5.56 -22.28,-9.45 -35.1,-26.49 -38.44,-51.59 -5.75,-40.29 12.7,-68.26 54.86,-84.9 34.1,-13.79 53.99,-22.82 60.14,-25.67 6.17,-3.33 11.84,-9.97 16.57,-19.93 11.36,-17.55 14.62,-44.1 9.83,-80.1l-229.54 -1615.21 611.21 -86.56zm474.75 -67.43l79.86 562.41c3.85,26.53 -0.89,48.81 -13.65,67.31 -12.77,18.51 -30.76,29.42 -54.44,32.77 -23.22,3.35 -43.14,-1.37 -60.21,-14.62 -17.55,-12.77 -30.37,-32.19 -38.47,-58.23l-25.69 -81.48c-25.7,-83.36 -62.75,-152.98 -111.17,-209.79 -29.9,-35.04 -67.86,-61.51 -113.36,-80.42l-23.91 -166.78 361.03 -51.16zm-1557.88 220.93l361.03 -51.18 23.91 166.8c-39.77,30.84 -68.63,66.9 -87.04,108.63 -30.25,67.8 -46.25,145.54 -48.05,232.26l-1.77 85.78c-0.93,27 -8.01,49.28 -20.78,66.36 -12.77,17.55 -30.78,27.53 -53.97,30.87 -23.69,3.35 -44.1,-1.83 -61.63,-16.03 -17.55,-14.19 -28.01,-34.57 -31.84,-61.09l-79.86 -562.41z"/>
  <path id="_15" class="fil3 str0" d="M7198.15 3018.6l229.55 1615.2c4.79,35.55 15.24,60.18 31.38,73.9 8.53,8.04 16.13,12.77 23.22,14.18 6.65,1.42 28.45,4.23 65.41,8.45 45.51,3.73 71.12,25.49 76.86,65.77 3.35,24.16 -5.63,45.02 -27.4,63.06 -16.1,13.29 -44.04,22.81 -84.32,28.55l-46.9 6.69 -614.07 87.03 -35.53 5.27c-32.68,4.77 -58.76,1.96 -78.2,-7.97 -19.43,-9.92 -30.83,-26.02 -34.18,-49.23 -5.26,-37.43 9.39,-64.46 43.97,-81.58 28.42,-14.25 45.46,-23.26 50.2,-26.11 4.73,-2.85 9,-9.02 13.25,-18.04 8.98,-16.11 10.84,-40.29 6.54,-72.51l-195.12 -1375.46c-4.79,-32.23 -13.33,-54.95 -26.63,-67.75 -6.64,-7.57 -12.34,-12.3 -17.55,-13.71 -5.68,-1.41 -24.18,-5.17 -55.45,-11.3 -37.93,-6.6 -59.77,-28.84 -65.01,-66.74 -3.36,-22.74 2.78,-41.7 18.87,-56.42 16.1,-15.17 40.25,-24.69 72.95,-29.48l35.53 -5.26 612.63 -86.56zm556.09 897.79c86.25,0.83 153.56,5.48 200.95,14.9 47.89,8.95 91.98,24.05 132.76,45.33 42.68,23.15 76.84,52.98 102.95,89.44 26.58,35.98 42.75,76.23 48.98,120.31l40.17 284.28c4.29,28.89 15.69,42.16 35.12,39.28 7.11,-0.95 12.79,-3.8 17.52,-8.55 4.26,-4.74 10.4,-13.75 17.5,-27.04 18.42,-34.14 39.74,-53.11 63.43,-56.46 15.15,-2.39 31.76,3.75 49.78,17.94 17.54,14.66 27.98,29.81 29.9,46.39 4.3,28.42 -4.16,64.93 -25.44,109.51 -21.27,44.57 -50.13,85.84 -85.62,123.79 -33.6,35.59 -71,63.13 -113.16,82.62 -42.16,19.48 -93.31,33.28 -152.54,41.9 -121.3,17.22 -220.38,-3.98 -298.17,-63.58 -77.79,-59.61 -125.3,-151.01 -142.99,-274.68l-32.53 -230.74c-7.18,-51.18 -11.94,-81.03 -13.85,-89.09 -10,-36 -27.1,-65.84 -51.77,-89.02 -31.31,-28.4 -71.62,-42.09 -121.84,-40.6l-21.04 -146.88c48.31,-14.27 81.94,-31.85 99.92,-53.21 16.09,-18.98 26,-39.82 29.77,-61.63 4.25,-22.28 3.25,-54.03 -2.96,-94.77l-51.66 -365.31c-8.12,-57.8 -25.7,-99.49 -51.81,-124.58 -26.56,-25.08 -70.18,-42.08 -131.32,-50.06l-21.54 -152.56 35.53 -5.26c101.88,-14.34 189.07,-23 261.56,-25.45 108.04,-5.35 208.07,16.32 299.59,64.05 132.31,68.08 209.69,181.24 232.16,339.01 18.19,129.35 -6.79,240.74 -75.87,334.67 -29.32,39.84 -64.83,74 -106.96,102.02 -42.13,28.49 -107.96,63.17 -196.53,104.04z"/>
  <path id="_16" class="fil3 str0" d="M9154.26 2855.03c-44.51,22.79 -74.33,50.33 -89.45,81.15 -15.6,31.3 -19.34,74.43 -11.2,129.4l174.07 1228.59c11.48,80.54 30.51,135.95 57.08,165.79 21.36,25.08 55.98,40.19 103.36,45.35l21.52 151.15c-205.65,12.59 -386.75,-39.79 -543.77,-157.11 -203.48,-152.33 -327.96,-387.22 -373.37,-705.14 -22.49,-159.69 -19.36,-307.06 9.38,-442.64 29.2,-135.58 83.54,-254.59 163.02,-357.52 61.04,-78.74 129.67,-141.86 205.91,-188.89 76.71,-47.48 163.86,-80.29 261.93,-98.9l21.51 148.77zm113.72 -16.27l-21.51 -148.77c99.49,-9.6 192.86,-2.14 279.61,21.92 86.77,24.05 170.23,65.65 250.38,124.31 212.51,156.1 341.71,396.21 387.63,720.77 45.44,317.92 -8.74,578.16 -161.54,781.19 -117.8,157.02 -277.37,257.68 -479.19,302.5l-21.54 -151.15c22.74,-9.05 40.26,-18.53 52.1,-29.45 11.83,-10.44 22.24,-24.68 30.75,-42.7 19.38,-40.78 23.56,-99.55 12.57,-175.34l-174.09 -1228.59c-7.18,-48.8 -20.5,-86.23 -40.91,-112.26 -13.75,-18 -28.94,-31.25 -45.53,-40.24 -16.13,-8.51 -39.35,-16.06 -68.74,-22.19z"/>
  <path id="_17" class="fil3 str0" d="M10977.3 2482.24l911.38 1166.98 86.09 605.52 -375.27 53.57 -1160.56 -1476.12c-25.16,-32.19 -44.62,-53.97 -59.79,-65.78 -14.72,-11.84 -32.26,-19.88 -53.58,-23.17l-54.98 -12.24c-14.22,-2.37 -26.56,-8.98 -36.52,-19.86 -9.97,-10.89 -15.67,-23.2 -18.06,-37.9 -1.92,-15.62 -0.03,-30.79 6.58,-45.02 6.14,-14.7 15.6,-25.6 28.85,-33.21 14.22,-8.55 55.91,-17.61 124.13,-27.17l601.73 -85.6zm-504.91 565.07l179.42 221.07 104.25 736.3c9.09,63.96 27.17,115.11 54.69,153.46 27.07,37.88 65.96,67.22 116.23,87.06l44.1 17.47c25.6,10.4 40.31,29.34 44.14,56.82 2.88,21.31 -3.26,39.79 -18.41,55.94 -12.77,13.75 -41.66,24.22 -87.15,30.44l-316.51 44.95c-83.38,11.95 -128.43,-6 -135.12,-53.85 -2.39,-16.11 -0.03,-29.86 7.52,-40.76 7.11,-10.91 24.15,-26.58 51.12,-47.47 80.96,-60.75 112.59,-155.57 94.42,-283.49l-138.69 -977.94zm1385.22 382.06l-179.91 -225.35 -54.03 -380.47c-11.01,-77.22 -30.51,-134.54 -58.99,-172.41 -28.48,-37.4 -73.06,-67.19 -134.22,-88.45 -20.86,-6.13 -35.55,-14.16 -44.58,-23.62 -9.02,-9.47 -14.25,-22.74 -16.63,-39.31 -3.83,-24.65 1.84,-44.08 16.5,-57.84 14.68,-13.76 39.78,-23.28 76.25,-28.53l342.57 -48.3c46.45,-6.69 77.71,-3.42 94.32,8.88 17.55,12.77 28,28.87 30.86,49.24 2.41,19.43 0.06,34.12 -7.03,45.04 -7.11,10.9 -26.05,27.04 -56.82,48.41 -44.5,31.33 -75.71,74.5 -92.71,129.49 -12.27,40.29 -13.62,92.44 -4.54,156.85l88.95 626.38z"/>
  <path id="_18" class="fil3 str0" d="M12799.9 2185.79l21.99 153.03c-77.19,30.43 -107.43,100.61 -92.13,209.59l181.25 1279.28c7.18,49.75 19.53,86.7 37.11,111.32 15.19,19.88 43.17,35.48 83.93,45.38l22.01 155.4c-29.38,3.83 -56.39,5.77 -81.51,4.38 -24.63,-0.93 -58.29,-5.62 -100.47,-13.61 -100.97,-19.31 -195.33,-57.57 -282.6,-114.33 -87.75,-56.75 -163.19,-128.68 -227.27,-215.8 -98.74,-136.82 -162.47,-305.45 -191.17,-507.29 -27.26,-195.21 -17.54,-373.41 30.58,-534.12 48.13,-161.18 130.9,-293.96 248.29,-398.86 68.16,-60.73 143.45,-108.23 225.86,-142.45 34.58,-14.26 75.8,-24.73 124.13,-31.91zm135.23 133.93l-21.05 -148.3c151.65,-7.79 278.18,2.02 380.58,29.36 29.88,8.98 53.1,12.25 68.74,9.88 14.68,-1.92 25.09,-7.14 32.19,-15.21 6.64,-7.59 19.88,-29.41 39.25,-64.5 13.24,-25.13 32.19,-39.38 56.82,-43.2 26.05,-3.36 45.02,0.89 57.35,13.67 12.81,12.78 21.37,35.52 26.17,68.67l76.03 535.41c9.56,68.7 -11.23,106.64 -62.41,113.82 -26.06,3.82 -45.98,-0.43 -60.21,-12.24 -14.22,-11.84 -29.89,-37.41 -46.53,-76.25 -20.91,-49.24 -54.16,-105.13 -99.74,-168.58 -45.58,-62.96 -87.35,-111.72 -126.24,-146.74 -44.12,-40.22 -91.07,-67.65 -140.85,-82.74 -49.79,-14.63 -109.98,-19.3 -180.1,-13.04zm840.19 1445.25c-31.7,41.76 -75.26,86.35 -130.64,132.85 -55.85,46.99 -108.88,84.98 -160.02,114.9 -46.88,26.11 -99.46,49.41 -157.72,69.86 -58.73,20.44 -110.85,34.26 -156.81,40.49l-21.99 -155.43c26.06,-9.97 44.52,-20.42 56.82,-31.8 11.84,-10.93 21.3,-25.16 27.91,-43.18 11.8,-30.33 14.12,-67.78 7.91,-111.84l-56.92 -402.25c-5.26,-35.53 -15.71,-60.64 -31.37,-74.36 -7.59,-8.05 -14.72,-12.78 -21.34,-14.21 -6.64,-1.4 -28.44,-3.75 -64.94,-7.01 -45.49,-4.69 -70.64,-27.4 -76.38,-67.66 -3.35,-24.18 4.22,-43.61 22.67,-59.74 18.45,-15.67 47.83,-26.14 88.11,-31.88l45.01 -6.21 503.65 -71.73c40.75,-5.74 70.61,-3.89 89.1,5.09 18.02,8.98 29.42,27.93 33.24,56.36 2.88,17.52 1.47,32.21 -3.72,44.55 -5.2,12.31 -16.09,26.56 -32.19,41.73 -16.09,15.67 -26.02,28.94 -28.85,40.8 -2.82,11.37 -2.32,32.21 1.98,61.61l66.49 469.06z"/>
  <path id="_19" class="fil3 str0" d="M4041.43 6869.51l229.55 1615.21c4.79,35.55 15.24,60.17 31.38,73.89 8.52,8.05 16.13,12.78 23.22,14.19 6.64,1.41 28.45,4.23 65.41,8.45 45.49,3.72 71.12,25.49 76.86,65.76 3.35,24.18 -5.63,45.04 -27.4,63.07 -16.1,13.29 -44.04,22.79 -84.32,28.53l-46.92 6.69 -614.06 87.04 -35.53 5.27c-32.68,4.77 -58.76,1.96 -78.2,-7.97 -19.45,-9.93 -30.83,-26.02 -34.18,-49.23 -5.26,-37.44 9.39,-64.47 43.97,-81.58 28.42,-14.25 45.46,-23.26 50.2,-26.11 4.73,-2.86 9,-9.02 13.25,-18.04 8.98,-16.13 10.84,-40.29 6.54,-72.51l-195.12 -1375.48c-4.79,-32.21 -13.35,-54.95 -26.63,-67.73 -6.65,-7.57 -12.34,-12.3 -17.55,-13.71 -5.68,-1.42 -24.18,-5.19 -55.45,-11.3 -37.93,-6.6 -59.77,-28.84 -65.02,-66.74 -3.35,-22.74 2.79,-41.7 18.88,-56.42 16.09,-15.19 40.25,-24.7 72.95,-29.48l35.53 -5.27 612.63 -86.56zm556.09 897.79c86.24,0.84 153.56,5.49 200.95,14.9 47.89,8.96 91.97,24.07 132.76,45.34 42.67,23.15 76.84,52.98 102.95,89.44 26.58,35.96 42.74,76.23 48.96,120.31l40.18 284.27c4.29,28.89 15.69,42.16 35.12,39.3 7.1,-0.95 12.78,-3.82 17.52,-8.55 4.25,-4.76 10.39,-13.76 17.5,-27.04 18.42,-34.15 39.74,-53.13 63.43,-56.47 15.15,-2.38 31.76,3.76 49.78,17.95 17.54,14.66 27.98,29.81 29.9,46.39 4.3,28.42 -4.18,64.93 -25.44,109.51 -21.27,44.57 -50.14,85.84 -85.62,123.79 -33.6,35.59 -71,63.11 -113.16,82.6 -42.16,19.48 -93.32,33.29 -152.55,41.9 -121.29,17.22 -220.37,-3.97 -298.16,-63.58 -77.79,-59.61 -125.3,-151.01 -143.01,-274.67l-32.52 -230.75c-7.18,-51.16 -11.94,-81.01 -13.85,-89.08 -10,-36 -27.1,-65.84 -51.77,-89.02 -31.31,-28.4 -71.62,-42.09 -121.84,-40.6l-21.05 -146.88c48.33,-14.27 81.95,-31.85 99.93,-53.21 16.09,-18.98 26,-39.84 29.77,-61.65 4.25,-22.28 3.25,-54.01 -2.96,-94.76l-51.66 -365.32c-8.12,-57.8 -25.7,-99.48 -51.81,-124.57 -26.56,-25.08 -70.18,-42.08 -131.32,-50.06l-21.54 -152.56 35.53 -5.27c101.88,-14.33 189.07,-22.99 261.56,-25.45 108.04,-5.35 208.07,16.32 299.58,64.07 132.31,68.07 209.7,181.24 232.18,339.01 18.19,129.35 -6.79,240.74 -75.87,334.67 -29.32,39.84 -64.83,74 -106.97,102.02 -42.12,28.48 -107.96,63.17 -196.52,104.03z"/>
  <path id="_20" class="fil3 str0" d="M6009.72 6590.3l266.37 1876.28 -612.65 86.56 -35.53 5.26c-32.67,4.79 -58.76,1.96 -78.19,-7.95 -19.45,-9.93 -30.84,-26.03 -34.19,-49.24 -5.26,-37.43 9.39,-64.46 43.97,-81.57 28.42,-14.25 45.48,-23.28 50.2,-26.13 4.74,-2.85 9,-9.02 13.25,-18.02 8.98,-16.13 10.84,-40.29 6.54,-72.52l-195.12 -1375.46c-4.77,-32.23 -13.33,-54.95 -26.63,-67.73 -6.64,-7.57 -12.32,-12.31 -17.54,-13.72 -5.7,-1.41 -24.18,-5.17 -55.47,-11.3 -37.93,-6.58 -59.77,-28.84 -65.01,-66.74 -3.36,-22.74 2.78,-41.7 18.87,-56.42 16.1,-15.17 40.26,-24.69 72.95,-29.48l35.53 -5.26 612.65 -86.56zm119.38 -17.22l554.36 -78.43 69.34 487.54c4.32,28.44 1.49,49.77 -7.48,63.99 -9.47,14.23 -26.05,23.25 -49.74,26.6 -20.36,2.88 -35.53,1 -45.98,-6.09 -9.96,-7.1 -21.36,-22.73 -33.22,-47.36 -49.89,-101.34 -112.55,-175.18 -187.95,-221.54 -75.41,-46.34 -167.38,-67.54 -276.37,-63.61l-22.96 -161.1zm136.37 1002.12l-22.48 -159.2c49.71,-33.25 84.73,-66.46 106.49,-100.6 21.29,-33.68 34.03,-76.35 39.16,-128.48 2.34,-35.55 8.45,-61.15 18.4,-75.84 9.93,-15.19 26.03,-24.21 47.83,-27.08 29.38,-4.3 51.18,4.2 65.42,25.51 8.08,10.89 15.21,37.41 20.96,79.12l74.61 523.56c6.21,43.11 5.3,73.92 -1.78,91.94 -7.08,18.01 -23.65,28.94 -49.24,32.77 -21.33,2.86 -38.38,-1.38 -52.15,-12.27 -13.76,-11.34 -26.58,-31.7 -37.98,-61.08 -24.73,-61.09 -53.68,-106.56 -87.37,-136.37 -33.69,-30.29 -74.47,-47.29 -121.86,-51.97zm132.87 873.69l-21.05 -147.83c58.27,-17.62 105.63,-37.58 142.11,-59.42 36.92,-21.85 72.44,-52.7 106.96,-92.08 34.55,-39.38 61.05,-78.74 79.01,-118.57 18.42,-39.35 34,-90.09 46.24,-152.66 6.13,-30.33 13.67,-52.15 23.14,-64.01 9.46,-11.85 24.15,-19.45 43.1,-22.32 25.57,-3.35 44.55,1.37 56.88,15.1 12.34,13.72 20.9,39.3 26.17,76.72l68.85 484.23 -571.4 80.83z"/>
  <path id="_21" class="fil3 str0" d="M7662.18 6318.03l23.91 166.31c-53.53,16.18 -90.46,45.62 -111.72,89.24 -21.27,43.14 -26.42,101.44 -16.36,174.89l161.15 1134.77 8.15 59.23c3.35,20.84 10.94,42.64 22.82,64.9 11.88,21.78 26.11,40.25 42.26,54.91 17.55,16.1 35.1,26.97 52.64,32.16 18.01,5.67 41.23,7.52 70.14,6.07l23.9 167.72c-178.14,25.34 -338.82,0.93 -483.46,-72.84 -127.09,-65.23 -229.58,-162.25 -307.93,-291.99 -78.36,-129.27 -130.7,-288.43 -157.47,-477.01 -19.61,-138.34 -18.82,-269.62 2.34,-394.76 21.16,-124.67 61.77,-236.55 121.36,-334.73 61.01,-99.12 138.61,-183.09 233.3,-251.46 94.69,-68.36 188.94,-109.71 283.7,-123.1l31.27 -4.32zm131.94 152.44l-23.43 -166.31c45.98,0.89 83.41,3.68 112.33,7.91 29.39,4.22 82.48,14.59 159.26,31.07 49.31,9.89 81.52,13.65 97.17,11.73 26.53,-3.83 44.99,-18.55 55.4,-44.62l13.22 -35.56c7.55,-23.69 26.49,-37.94 56.81,-42.26 24.63,-3.33 45.02,1.37 60.21,14.15 15.17,12.77 25.16,33.13 28.98,61.56l81.3 572.84c5.26,36.96 1.02,64.93 -13.15,83.9 -14.21,18.96 -31.72,29.89 -53.03,32.77 -21.8,3.33 -40.29,-1.37 -55.94,-13.68 -15.19,-12.31 -28.96,-34.1 -41.8,-64.87 -29.95,-70.09 -56.54,-124.55 -80.76,-162.92 -51.76,-81.91 -106.82,-146.28 -164.69,-193.6 -39.38,-31.7 -76.85,-55.35 -113.82,-69.99 -36.52,-15.12 -75.87,-22.66 -118.04,-22.12zm255.83 1781.98l-23.9 -167.25c71.05,-15.73 142.56,-53.74 214.53,-113.54 38.33,-32.27 70.98,-73.06 97.46,-122.38 26.94,-49.32 44.9,-101.47 53.82,-156.92 5.17,-30.82 12.73,-53.1 23.61,-67.33 10.4,-14.23 26.05,-22.78 45.94,-25.64 22.27,-2.88 41.7,2.79 58.78,16.97 17.08,14.69 27.05,34.1 30.89,58.73 5.73,41.22 -3.21,93.85 -26.34,156.89 -23.14,63.06 -56.24,122.81 -98.83,179.27 -52.03,69.26 -107.87,122.87 -167.54,161.33 -59.67,38.47 -129.28,65.09 -208.42,79.88z"/>
  <path id="_22" class="fil3 str0" d="M9575.03 7998.33l-614.06 87.04 -35.53 5.26c-32.68,4.79 -58.76,1.96 -78.2,-7.95 -19.45,-9.93 -30.84,-26.03 -34.19,-49.23 -5.24,-37.44 9.41,-64.47 43.98,-81.58 28.41,-14.25 45.46,-23.28 50.18,-26.13 4.74,-2.85 9,-9.02 13.26,-18.02 8.96,-16.13 10.83,-40.29 6.53,-72.52l-195.12 -1375.46c-4.77,-32.23 -13.33,-54.95 -26.61,-67.73 -6.65,-7.57 -12.34,-12.31 -17.55,-13.72 -5.7,-1.41 -24.18,-5.17 -55.47,-11.3 -37.93,-6.58 -59.75,-28.84 -65.01,-66.72 -3.35,-22.75 2.79,-41.72 18.88,-56.43 16.09,-15.17 40.25,-24.69 72.95,-29.46l35.53 -5.27 614.04 -87.04 36.02 -4.79c32.68,-4.77 58.76,-1.96 78.2,7.48 19.43,9.93 30.83,26.5 34.19,49.72 5.24,37.43 -9.41,64.93 -44.44,82.04 -28.42,14.26 -45.01,22.79 -49.74,26.13 -4.73,2.85 -8.99,9 -13.24,18.02 -8.99,16.13 -11.33,40.29 -6.54,72.52l195.11 1375.46c4.32,32.21 13.35,54.48 26.17,67.73 6.63,7.57 12.79,11.83 18.02,13.72 5.21,1.41 23.71,5.19 54.98,10.82 38.38,7.07 60.22,28.84 65.48,66.74 3.35,22.74 -3.26,41.72 -19.35,56.42 -15.63,14.72 -40.25,24.69 -72.95,29.48l-35.53 4.79z"/>
  <path id="_23" class="fil3 str0" d="M10423.45 5964.18l229.54 1615.21c4.8,35.55 15.24,60.17 31.38,73.89 8.53,8.04 16.14,12.78 23.24,14.19 6.64,1.41 28.44,4.23 65.41,8.44 45.49,3.73 71.11,25.51 76.85,65.77 3.35,24.16 -5.62,45.04 -27.4,63.07 -16.09,13.29 -44.04,22.79 -84.3,28.53l-46.92 6.69 -614.06 87.04 -35.53 5.27c-32.68,4.77 -58.76,1.96 -78.2,-7.97 -19.45,-9.93 -30.83,-26.03 -34.19,-49.23 -5.24,-37.44 9.41,-64.47 43.98,-81.58 28.41,-14.25 45.46,-23.28 50.18,-26.13 4.74,-2.85 9,-9 13.26,-18.02 8.98,-16.13 10.83,-40.29 6.53,-72.51l-195.11 -1375.48c-4.79,-32.21 -13.35,-54.95 -26.63,-67.73 -6.65,-7.57 -12.34,-12.31 -17.55,-13.72 -5.7,-1.41 -24.18,-5.17 -55.47,-11.3 -37.93,-6.58 -59.75,-28.83 -65.01,-66.72 -3.35,-22.75 2.79,-41.7 18.88,-56.42 16.09,-15.19 40.25,-24.7 72.95,-29.48l35.53 -5.27 612.63 -86.56zm281.07 1141.25l-21.05 -146.88c38.37,-14.74 64.41,-28.52 79.09,-40.86 14.68,-12.35 26.03,-29.9 34.99,-52.66 14.18,-38.4 16.96,-87.69 8.34,-148.33l-62.64 -440.65c-5.74,-43.11 -13.83,-74.37 -22.86,-94.73 -9.5,-20.37 -25.16,-37.41 -46.99,-52.08 -29.88,-22.24 -68.29,-33.09 -113.78,-33.03l-21.04 -148.29c188.57,-26.78 330.27,-28.87 424.61,-5.77 109.49,26.39 200.56,78.41 272.68,155.08 74.03,78.09 119.67,180.88 137.83,307.38 20.08,141.19 5.08,261.1 -44.1,359.73 -49.61,97.69 -127.25,175.51 -232.84,233.47 -87.61,47.03 -218.36,82.74 -392.24,107.61z"/>
  <path id="_24" class="fil3 str0" d="M12214.38 5710.14l266.37 1876.28 -612.65 86.56 -35.53 5.26c-32.67,4.77 -58.76,1.96 -78.19,-7.95 -19.45,-9.93 -30.84,-26.03 -34.19,-49.24 -5.26,-37.43 9.39,-64.46 43.97,-81.58 28.42,-14.23 45.48,-23.26 50.2,-26.11 4.74,-2.85 9,-9.02 13.26,-18.04 8.96,-16.11 10.83,-40.28 6.53,-72.51l-195.12 -1375.46c-4.77,-32.23 -13.33,-54.95 -26.63,-67.73 -6.64,-7.57 -12.32,-12.31 -17.54,-13.72 -5.7,-1.41 -24.18,-5.17 -55.47,-11.3 -37.93,-6.6 -59.77,-28.84 -65.01,-66.74 -3.35,-22.74 2.78,-41.7 18.87,-56.42 16.1,-15.17 40.26,-24.69 72.95,-29.48l35.53 -5.26 612.65 -86.56zm119.38 -17.22l554.36 -78.43 69.35 487.54c4.3,28.44 1.48,49.77 -7.5,63.99 -9.46,14.22 -26.05,23.25 -49.74,26.6 -20.36,2.88 -35.53,1 -45.96,-6.09 -9.97,-7.1 -21.36,-22.73 -33.24,-47.36 -49.89,-101.34 -112.55,-175.19 -187.95,-221.54 -75.41,-46.35 -167.38,-67.54 -276.36,-63.63l-22.97 -161.08zm136.37 1002.12l-22.48 -159.2c49.71,-33.25 84.73,-66.46 106.49,-100.61 21.29,-33.67 34.03,-76.34 39.16,-128.47 2.34,-35.55 8.45,-61.15 18.4,-75.84 9.93,-15.19 26.03,-24.21 47.83,-27.08 29.38,-4.3 51.18,4.2 65.42,25.49 8.08,10.9 15.21,37.43 20.96,79.12l74.61 523.57c6.21,43.11 5.3,73.92 -1.78,91.94 -7.08,18.01 -23.65,28.94 -49.24,32.75 -21.33,2.88 -38.38,-1.37 -52.13,-12.25 -13.78,-11.34 -26.6,-31.72 -38,-61.08 -24.73,-61.11 -53.68,-106.56 -87.37,-136.37 -33.69,-30.29 -74.47,-47.29 -121.86,-51.97zm132.87 873.69l-21.05 -147.85c58.27,-17.61 105.65,-37.57 142.11,-59.41 36.92,-21.85 72.44,-52.7 106.97,-92.08 34.54,-39.38 61.04,-78.76 78.99,-118.57 18.42,-39.36 34,-90.09 46.24,-152.66 6.13,-30.33 13.67,-52.16 23.14,-64.01 9.46,-11.85 24.15,-19.45 43.1,-22.32 25.57,-3.35 44.55,1.37 56.88,15.09 12.34,13.73 20.9,39.3 26.17,76.74l68.85 484.23 -571.4 80.83z"/>
  <path id="_25" class="fil3 str0" d="M13741.76 5455.56l22.48 158.25c-54,23.29 -93.77,53.68 -118.83,90.18 -24.59,37.01 -34.01,79.2 -26.85,126.57 6.21,45.96 24.27,84.33 53.69,115.09 29.9,30.75 74.94,58.19 135.16,81.33 41.26,15.59 134.17,43.43 278.29,83.99 87.22,24.07 155.5,47.19 205.28,69.41 49.31,22.68 97.21,52.48 143.71,89.86 124.29,98.4 197.42,225.79 219.44,382.61 16.74,117.97 2.66,230.31 -41.74,336.53 -44.9,106.21 -114.44,194.9 -209.12,265.17 -50.67,37.03 -107.49,68.85 -170.96,95 -62.99,26.14 -122.69,43.29 -179.54,51.43l-22.01 -156.37c76.27,-30.9 129.77,-65.56 160.05,-104.94 30.28,-39.36 41.58,-88.19 32.97,-146.93 -8.6,-61.61 -43.74,-111.79 -105.4,-150.57 -40.79,-25.06 -115.69,-52.93 -224.72,-83.11 -119.48,-33.49 -201.96,-58.02 -246.52,-73.13 -44.58,-15.12 -88.19,-34.01 -130.88,-57.18 -189.22,-98.33 -298.88,-249.83 -327.58,-454.04 -14.81,-104.24 -6.89,-203.77 23.32,-298.58 30.68,-94.35 80.32,-174.03 149.44,-239.04 96.55,-90.15 223.49,-150.99 380.3,-181.51zm130.5 142.94l-21.05 -151.62c55.45,-3.85 103.79,-3.44 145.98,1.24 41.7,5.16 101.9,17.87 180.59,38.63 19.45,4.7 35.08,6.58 47.4,4.68 17.07,-2.39 29.38,-10.47 35.52,-23.26l24.58 -44.1c11.83,-22.31 28.4,-35.12 49.71,-37.98 24.65,-3.82 44.08,2.78 57.84,18.88 14.23,16.09 23.74,43.57 29.48,81.94l64.1 454.38c3.82,26.53 -0.41,49.77 -13.18,68.73 -12.77,19.45 -30.76,30.84 -54.93,34.19 -18.01,2.39 -36.02,-1.37 -53.57,-10.83 -9,-6.16 -17.07,-14.19 -23.72,-24.14 -6.18,-9.94 -13.78,-26.99 -21.87,-51.16 -16.16,-43.57 -40.39,-87.14 -71.73,-131.65 -31.8,-44.01 -66.93,-82.82 -104.87,-115.96 -76.85,-64.82 -166.95,-102.15 -270.27,-111.97zm53.32 1660.94l22.01 156.37c-75.34,11 -161.11,1.15 -257.84,-29.53 -36.03,-10.84 -60.68,-17.93 -74.43,-20.75 -13.26,-2.84 -26.06,-3.29 -37.91,-1.37 -18.48,2.38 -31.74,7.61 -40.26,14.73 -8.04,7.59 -20.35,24.66 -37.36,51.72 -13.25,22.75 -29.82,35.58 -49.24,38.44 -51.18,7.18 -82.51,-28.8 -93.5,-107.93l-71.26 -499.88c-3.35,-26.05 0.89,-49.28 12.71,-69.66 12.3,-19.93 29.34,-32.28 51.14,-36.1 19.89,-3.8 36.49,-0.51 49.78,10.36 13.28,10.89 26.1,31.26 38.47,61.09 32.31,76.25 73.63,145.86 122.99,208.82 49.85,63.45 104.42,115.02 164.17,155.25 61.19,41.61 128.04,64.75 200.55,68.44z"/>
  <path class="fil4" d="M1118.6 9118.58c0,-120.45 26.67,-209.54 79.67,-267.56 53.02,-58.04 124.84,-87.21 215.5,-87.21 93.79,0 167.18,28.87 220.2,86.59 53,57.71 79.35,147.11 79.35,268.18 0,120.46 -26.35,209.54 -79.35,267.57 -53.02,58.02 -125.16,87.19 -215.82,87.19 -93.78,0 -166.87,-28.85 -219.88,-86.57 -53,-57.72 -79.67,-147.11 -79.67,-268.2zm201.38 0c0,86.89 10.04,145.23 30.43,175.04 15.37,21.95 36.7,32.93 63.68,32.93 27.59,0 49.24,-10.98 64.61,-32.93 19.77,-29.81 29.49,-88.15 29.49,-175.04 0,-86.89 -9.72,-144.91 -29.49,-174.09 -15.37,-22.59 -37.01,-33.87 -64.61,-33.87 -26.99,0 -48.31,10.97 -63.68,32.93 -20.39,29.79 -30.43,88.14 -30.43,175.03zm290.78 1069.95l-191.03 0 717.37 -1424.72 186.95 0 -713.29 1424.72zm416.87 -355.39c0,-120.76 26.65,-210.17 79.67,-268.51 53.02,-58.34 125.47,-87.51 217.38,-87.51 92.53,0 165.3,29.17 218.32,87.51 53,58.34 79.35,147.75 79.35,268.51 0,121.71 -26.35,211.42 -79.35,269.76 -53.02,58.34 -125.16,87.51 -215.82,87.51 -93.78,0 -166.87,-29.17 -219.88,-87.51 -53.02,-58.34 -79.67,-148.05 -79.67,-269.76zm201.38 0.62c0,87.83 10.04,146.49 30.43,175.66 15.37,22.89 36.7,34.19 63.67,34.19 27.61,0 48.94,-10.98 63.68,-33.25 20.39,-29.81 30.43,-88.77 30.43,-176.6 0,-87.83 -9.72,-146.8 -29.49,-176.6 -15.37,-22.27 -37.01,-33.24 -64.62,-33.24 -27.59,0 -48.92,10.97 -63.67,33.24 -20.39,29.81 -30.43,88.77 -30.43,176.6z"/>
  <path class="fil4" d="M14823.39 1382.24c0,-120.45 26.67,-209.54 79.67,-267.56 53.02,-58.04 124.84,-87.21 215.5,-87.21 93.79,0 167.18,28.87 220.2,86.59 53,57.71 79.35,147.11 79.35,268.18 0,120.46 -26.35,209.54 -79.35,267.57 -53.02,58.02 -125.16,87.19 -215.82,87.19 -93.78,0 -166.87,-28.85 -219.88,-86.57 -53,-57.72 -79.67,-147.11 -79.67,-268.2zm201.38 0c0,86.89 10.04,145.23 30.43,175.04 15.37,21.95 36.7,32.93 63.68,32.93 27.59,0 49.24,-10.98 64.61,-32.93 19.77,-29.81 29.49,-88.15 29.49,-175.04 0,-86.89 -9.72,-144.91 -29.49,-174.09 -15.37,-22.59 -37.01,-33.87 -64.61,-33.87 -26.99,0 -48.31,10.97 -63.68,32.93 -20.39,29.79 -30.43,88.14 -30.43,175.03zm290.78 1069.95l-191.03 0 717.37 -1424.72 186.95 0 -713.29 1424.72zm416.87 -355.39c0,-120.76 26.65,-210.17 79.67,-268.51 53.02,-58.34 125.47,-87.51 217.38,-87.51 92.53,0 165.3,29.17 218.32,87.51 53,58.34 79.35,147.75 79.35,268.51 0,121.71 -26.35,211.42 -79.35,269.76 -53.02,58.34 -125.16,87.51 -215.82,87.51 -93.78,0 -166.87,-29.17 -219.88,-87.51 -53.02,-58.34 -79.67,-148.05 -79.67,-269.76zm201.38 0.62c0,87.83 10.04,146.49 30.43,175.66 15.37,22.89 36.7,34.19 63.67,34.19 27.61,0 48.94,-10.98 63.68,-33.25 20.39,-29.81 30.43,-88.77 30.43,-176.6 0,-87.83 -9.72,-146.8 -29.49,-176.6 -15.37,-22.27 -37.01,-33.24 -64.62,-33.24 -27.59,0 -48.92,10.97 -63.67,33.24 -20.39,29.81 -30.43,88.77 -30.43,176.6z"/>
 </g>
</svg>
